<?xml version='1.0' encoding='iso-8859-1'?>
<svg version="1.1" xmlns="http://www.w3.org/2000/svg" viewBox="0 0 447 447" xmlns:xlink="http://www.w3.org/1999/xlink" enable-background="new 0 0 447 447">
  <g>
    <path d="M407.5,72h-368C17.72,72,0,89.72,0,111.5v224C0,357.28,17.72,375,39.5,375h368c21.78,0,39.5-17.72,39.5-39.5v-224   C447,89.72,429.28,72,407.5,72z M288,360H159V231h129V360z M288,216H159V87h129V216z M39.5,87H144v129H15V111.5   C15,97.991,25.991,87,39.5,87z M15,335.5V231h129v129H39.5C25.991,360,15,349.009,15,335.5z M432,335.5   c0,13.509-10.991,24.5-24.5,24.5H303V87h104.5c13.509,0,24.5,10.991,24.5,24.5V335.5z"/>
    <path d="M39.5,159H72v32.5c0,4.142,3.358,7.5,7.5,7.5s7.5-3.358,7.5-7.5V159h32.5c4.142,0,7.5-3.358,7.5-7.5s-3.358-7.5-7.5-7.5H87   v-32.5c0-4.142-3.358-7.5-7.5-7.5s-7.5,3.358-7.5,7.5V144H39.5c-4.142,0-7.5,3.358-7.5,7.5S35.358,159,39.5,159z"/>
    <path d="m183.5,159h80c4.142,0 7.5-3.358 7.5-7.5s-3.358-7.5-7.5-7.5h-80c-4.142,0-7.5,3.358-7.5,7.5s3.358,7.5 7.5,7.5z"/>
    <path d="m183.5,303h80c4.142,0 7.5-3.358 7.5-7.5s-3.358-7.5-7.5-7.5h-80c-4.142,0-7.5,3.358-7.5,7.5s3.358,7.5 7.5,7.5z"/>
    <path d="m407.5,240h-80c-4.142,0-7.5,3.358-7.5,7.5s3.358,7.5 7.5,7.5h80c4.142,0 7.5-3.358 7.5-7.5s-3.358-7.5-7.5-7.5z"/>
    <path d="m407.5,208h-80c-4.142,0-7.5,3.358-7.5,7.5s3.358,7.5 7.5,7.5h80c4.142,0 7.5-3.358 7.5-7.5s-3.358-7.5-7.5-7.5z"/>
    <path d="m90.106,295.5l26.697-26.697c2.929-2.929 2.929-7.678 0-10.606-2.929-2.929-7.678-2.929-10.606,0l-26.697,26.697-26.697-26.697c-2.929-2.929-7.678-2.929-10.606,0-2.929,2.929-2.929,7.678 0,10.606l26.697,26.697-26.697,26.697c-2.929,2.929-2.929,7.678 0,10.606 1.464,1.465 3.384,2.197 5.303,2.197s3.839-0.732 5.303-2.197l26.697-26.697 26.697,26.697c1.464,1.464 3.384,2.197 5.303,2.197s3.839-0.732 5.303-2.197c2.929-2.929 2.929-7.678 0-10.606l-26.697-26.697z"/>
    <path d="m223.5,278c7.995,0 14.5-6.505 14.5-14.5s-6.505-14.5-14.5-14.5-14.5,6.505-14.5,14.5 6.505,14.5 14.5,14.5z"/>
    <path d="m223.5,313c-7.995,0-14.5,6.505-14.5,14.5s6.505,14.5 14.5,14.5 14.5-6.505 14.5-14.5-6.505-14.5-14.5-14.5z"/>
  </g>
</svg>
