<?xml version='1.0' encoding='iso-8859-1'?>
<svg version="1.1" xmlns="http://www.w3.org/2000/svg" viewBox="0 0 463 463" xmlns:xlink="http://www.w3.org/1999/xlink" enable-background="new 0 0 463 463">
  <g>
    <path d="M423.5,60H399V43.5c0-4.143-3.358-7.5-7.5-7.5s-7.5,3.357-7.5,7.5V60h-65V43.5c0-4.143-3.358-7.5-7.5-7.5   s-7.5,3.357-7.5,7.5V60h-65V43.5c0-4.143-3.358-7.5-7.5-7.5s-7.5,3.357-7.5,7.5V60h-65V43.5c0-4.143-3.358-7.5-7.5-7.5   s-7.5,3.357-7.5,7.5V60H79V43.5c0-4.143-3.358-7.5-7.5-7.5S64,39.357,64,43.5V60H39.5C17.72,60,0,77.72,0,99.5v288   C0,409.28,17.72,427,39.5,427h384c21.78,0,39.5-17.72,39.5-39.5v-288C463,77.72,445.28,60,423.5,60z M39.5,75H64v16.5   c0,4.143,3.358,7.5,7.5,7.5s7.5-3.357,7.5-7.5V75h65v16.5c0,4.143,3.358,7.5,7.5,7.5s7.5-3.357,7.5-7.5V75h65v16.5   c0,4.143,3.358,7.5,7.5,7.5s7.5-3.357,7.5-7.5V75h65v16.5c0,4.143,3.358,7.5,7.5,7.5s7.5-3.357,7.5-7.5V75h65v16.5   c0,4.143,3.358,7.5,7.5,7.5s7.5-3.357,7.5-7.5V75h24.5c13.509,0,24.5,10.99,24.5,24.5V124H15V99.5C15,85.99,25.991,75,39.5,75z    M423.5,412h-384C25.991,412,15,401.01,15,387.5V139h433v248.5C448,401.01,437.009,412,423.5,412z"/>
    <path d="m391.5,172h-320c-12.958,0-23.5,10.542-23.5,23.5v160c0,12.958 10.542,23.5 23.5,23.5h320c12.958,0 23.5-10.542 23.5-23.5v-160c0-12.958-10.542-23.5-23.5-23.5zm-79.5,96h-73v-33h73v33zm15-33h73v33h-73v-33zm-88-15v-33h73v33h-73zm-15,0h-73v-33h73v33zm0,15v33h-73v-33h73zm-88,33h-73v-33h73v33zm-73,15h73v33h-73v-33zm88,0h73v33h-73v-33zm73,48v33h-73v-33h73zm15,0h73v33h-73v-33zm0-15v-33h73v33h-73zm88-33h73v33h-73v-33zm73-87.5v24.5h-73v-33h64.5c4.687,0 8.5,3.813 8.5,8.5zm-328.5-8.5h64.5v33h-73v-24.5c0-4.687 3.813-8.5 8.5-8.5zm-8.5,168.5v-24.5h73v33h-64.5c-4.687,0-8.5-3.813-8.5-8.5zm328.5,8.5h-64.5v-33h73v24.5c0,4.687-3.813,8.5-8.5,8.5z"/>
  </g>
</svg>
