<?xml version='1.0' encoding='iso-8859-1'?>
<svg version="1.1" xmlns="http://www.w3.org/2000/svg" viewBox="0 0 463 463" xmlns:xlink="http://www.w3.org/1999/xlink" enable-background="new 0 0 463 463">
  <path d="m447.5,256h-72.5v-44.086l64.027-35.571c4.918-2.732 7.973-7.925 7.973-13.55v-21.697c0-5.55-2.855-10.544-7.639-13.358-0.67-0.394-1.361-0.729-2.064-1.016l-26.967-85.778c-3.021-9.61-10.532-17.25-20.089-20.436l-60.37-20.123c-0.016-0.005-0.032-0.008-0.048-0.013-0.162-0.053-0.328-0.095-0.494-0.137-0.082-0.021-0.164-0.046-0.246-0.063-0.13-0.028-0.264-0.047-0.397-0.068-0.122-0.02-0.245-0.042-0.367-0.056-0.092-0.01-0.186-0.013-0.279-0.02-0.163-0.012-0.327-0.024-0.489-0.025-0.016-0.001-0.033-0.003-0.051-0.003h-24.483c-7.909,0-14.506,5.86-15.346,13.634-3.095,28.714-27.243,50.366-56.171,50.366s-53.076-21.652-56.171-50.367c-0.84-7.773-7.436-13.633-15.346-13.633h-24.483c-0.018,0-0.035,0.002-0.052,0.003-0.163,0.001-0.326,0.013-0.49,0.025-0.093,0.007-0.186,0.01-0.278,0.02-0.123,0.014-0.246,0.036-0.369,0.056-0.132,0.021-0.265,0.04-0.395,0.068-0.083,0.018-0.165,0.043-0.248,0.064-0.166,0.042-0.331,0.084-0.493,0.137-0.016,0.005-0.032,0.008-0.048,0.013l-60.368,20.122c-9.558,3.186-17.068,10.825-20.09,20.437l-26.967,85.778c-0.703,0.286-1.393,0.621-2.064,1.015-4.783,2.814-7.638,7.808-7.638,13.358v21.697c0,5.625 3.055,10.817 7.973,13.55l64.027,35.571v44.086h-72.5c-8.547,0-15.5,6.953-15.5,15.5v96c0,8.547 6.953,15.5 15.5,15.5h72.5v32.5c0,5.827 3.235,10.908 8,13.555v18.445c0,8.547 6.953,15.5 15.5,15.5h240c8.547,0 15.5-6.953 15.5-15.5v-18.445c4.765-2.647 8-7.728 8-13.555v-32.5h72.5c8.547,0 15.5-6.953 15.5-15.5v-96c0-8.547-6.953-15.5-15.5-15.5zm-15.5-93.207c0,0.182-0.099,0.349-0.258,0.437l-56.742,31.523v-22.839l56.084-31.158c0.139,0.008 0.274,0.033 0.414,0.033 0.125,0 0.25-0.022 0.375-0.029 0.121,0.12 0.126,0.247 0.126,0.336v21.697zm-9.847-34.236l-47.152,26.196v-32.767c0-6.026 1.105-11.931 3.286-17.549l20.046-51.648 23.82,75.768zm-262.169-113.557c0.253,0 0.424,0.169 0.432,0.241 3.918,36.349 34.478,63.759 71.085,63.759s67.167-27.41 71.085-63.758c0.008-0.073 0.179-0.242 0.432-0.242h16.669c-3.819,45.303-41.912,81-88.186,81s-84.366-35.697-88.186-81h16.669zm-95.315,37.79l20.046,51.648c2.181,5.618 3.286,11.522 3.286,17.548v32.767l-47.152-26.195 23.82-75.768zm-33.41,110.439c-0.159-0.088-0.258-0.255-0.258-0.437v-21.697c0-0.089 0.005-0.216 0.126-0.336 0.125,0.006 0.251,0.029 0.375,0.029 0.139,0 0.275-0.025 0.413-0.033l56.086,31.159v22.839l-56.742-31.524zm71.742,44.367c0-0.016 0-0.031 0-0.047v-39.953c0-0.016 0-0.031 0-0.047v-45.563c0-7.891-1.447-15.621-4.302-22.977l-24.374-62.797c0.999-0.593 2.056-1.1 3.177-1.473l51.004-17.001c5.158,52.282 49.379,93.262 102.995,93.262s97.837-40.98 102.994-93.263l51.005,17.001c1.121,0.374 2.177,0.88 3.177,1.473l-24.374,62.799c-2.854,7.355-4.302,15.086-4.302,22.977v45.563c0,0.016 0,0.031 0,0.047v39.953c0,0.016 0,0.031 0,0.047v48.403h-257v-48.404zm248.5,240.404h-240c-0.275,0-0.5-0.225-0.5-0.5v-16.5h241v16.5c0,0.275-0.225,0.5-0.5,0.5zm8.5-32.5c0,0.275-0.225,0.5-0.5,0.5h-256c-0.275,0-0.5-0.225-0.5-0.5v-32.5h257v32.5zm88-48c0,0.275-0.225,0.5-0.5,0.5h-432c-0.275,0-0.5-0.225-0.5-0.5v-96c0-0.275 0.225-0.5 0.5-0.5h48.5v16.5c0,4.143 3.357,7.5 7.5,7.5s7.5-3.357 7.5-7.5v-16.5h25v32.5c0,4.143 3.357,7.5 7.5,7.5s7.5-3.357 7.5-7.5v-32.5h25v16.5c0,4.143 3.357,7.5 7.5,7.5s7.5-3.357 7.5-7.5v-16.5h25v16.5c0,4.143 3.357,7.5 7.5,7.5s7.5-3.357 7.5-7.5v-16.5h25v32.5c0,4.143 3.357,7.5 7.5,7.5s7.5-3.357 7.5-7.5v-32.5h25v16.5c0,4.143 3.357,7.5 7.5,7.5s7.5-3.357 7.5-7.5v-16.5h25v16.5c0,4.143 3.357,7.5 7.5,7.5s7.5-3.357 7.5-7.5v-16.5h25v32.5c0,4.143 3.357,7.5 7.5,7.5s7.5-3.357 7.5-7.5v-32.5h25v16.5c0,4.143 3.357,7.5 7.5,7.5s7.5-3.357 7.5-7.5v-16.5h48.5c0.275,0 0.5,0.225 0.5,0.5v96z"/>
</svg>
