<?xml version='1.0' encoding='iso-8859-1'?>
<svg version="1.1" xmlns="http://www.w3.org/2000/svg" viewBox="0 0 463 463" xmlns:xlink="http://www.w3.org/1999/xlink" enable-background="new 0 0 463 463">
  <g>
    <path d="m392.5,368h-2c-3.459,0-6.81,0.466-10.002,1.326l-20.498-33.113c4.318-4.263 7-10.18 7-16.713 0-4.814-1.457-9.293-3.951-13.023l58.827-95.029c2.18-3.521 1.093-8.145-2.429-10.324-3.523-2.183-8.146-1.094-10.325,2.43l-58.016,93.718c-2.388-0.819-4.945-1.271-7.607-1.271s-5.22,0.451-7.607,1.271l-58.016-93.718c-2.18-3.522-6.802-4.609-10.325-2.43-3.522,2.18-4.609,6.803-2.429,10.324l58.827,95.029c-2.493,3.73-3.951,8.209-3.951,13.023 0,6.533 2.682,12.45 7,16.713l-20.498,33.112c-3.191-0.86-6.543-1.326-10.002-1.326h-2c-21.229,0-38.5,17.271-38.5,38.5v18c0,21.229 17.271,38.5 38.5,38.5h2c21.229,0 38.5-17.271 38.5-38.5v-18c0-12.389-5.889-23.423-15.007-30.47l20.565-33.22c0.965,0.121 1.945,0.191 2.942,0.191s1.978-0.07 2.942-0.191l20.565,33.22c-9.116,7.048-15.005,18.082-15.005,30.471v18c0,21.229 17.271,38.5 38.5,38.5h2c21.229,0 38.5-17.271 38.5-38.5v-18c0-21.229-17.271-38.5-38.5-38.5zm-72.5,56.5c0,12.958-10.542,23.5-23.5,23.5h-2c-12.958,0-23.5-10.542-23.5-23.5v-18c0-12.958 10.542-23.5 23.5-23.5h2c12.958,0 23.5,10.542 23.5,23.5v18zm32-105c0,4.687-3.813,8.5-8.5,8.5s-8.5-3.813-8.5-8.5 3.813-8.5 8.5-8.5 8.5,3.813 8.5,8.5zm64,105c0,12.958-10.542,23.5-23.5,23.5h-2c-12.958,0-23.5-10.542-23.5-23.5v-18c0-12.958 10.542-23.5 23.5-23.5h2c12.958,0 23.5,10.542 23.5,23.5v18z"/>
    <path d="m79.5,304h-24c-4.687,0-8.5-3.813-8.5-8.5v-24c0-4.143-3.358-7.5-7.5-7.5s-7.5,3.357-7.5,7.5v24c0,12.958 10.542,23.5 23.5,23.5h24c4.142,0 7.5-3.357 7.5-7.5s-3.358-7.5-7.5-7.5z"/>
    <path d="M79.5,0h-24C42.542,0,32,10.542,32,23.5v24c0,4.143,3.358,7.5,7.5,7.5s7.5-3.357,7.5-7.5v-24c0-4.687,3.813-8.5,8.5-8.5h24   c4.142,0,7.5-3.357,7.5-7.5S83.642,0,79.5,0z"/>
    <path d="m39.5,247c4.142,0 7.5-3.357 7.5-7.5v-32c0-4.143-3.358-7.5-7.5-7.5s-7.5,3.357-7.5,7.5v32c0,4.143 3.358,7.5 7.5,7.5z"/>
    <path d="m39.5,183c4.142,0 7.5-3.357 7.5-7.5v-32c0-4.143-3.358-7.5-7.5-7.5s-7.5,3.357-7.5,7.5v32c0,4.143 3.358,7.5 7.5,7.5z"/>
    <path d="m39.5,119c4.142,0 7.5-3.357 7.5-7.5v-32c0-4.143-3.358-7.5-7.5-7.5s-7.5,3.357-7.5,7.5v32c0,4.143 3.358,7.5 7.5,7.5z"/>
    <path d="m343.5,200c-4.142,0-7.5,3.357-7.5,7.5v32c0,4.143 3.358,7.5 7.5,7.5s7.5-3.357 7.5-7.5v-32c0-4.143-3.358-7.5-7.5-7.5z"/>
    <path d="m351,143.5c0-4.143-3.358-7.5-7.5-7.5s-7.5,3.357-7.5,7.5v32c0,4.143 3.358,7.5 7.5,7.5s7.5-3.357 7.5-7.5v-32z"/>
    <path d="m351,79.5c0-4.143-3.358-7.5-7.5-7.5s-7.5,3.357-7.5,7.5v32c0,4.143 3.358,7.5 7.5,7.5s7.5-3.357 7.5-7.5v-32z"/>
    <path d="m303.5,15h24c4.687,0 8.5,3.813 8.5,8.5v24c0,4.143 3.358,7.5 7.5,7.5s7.5-3.357 7.5-7.5v-24c0-12.958-10.542-23.5-23.5-23.5h-24c-4.142,0-7.5,3.357-7.5,7.5s3.358,7.5 7.5,7.5z"/>
    <path d="M143.5,0h-32c-4.142,0-7.5,3.357-7.5,7.5s3.358,7.5,7.5,7.5h32c4.142,0,7.5-3.357,7.5-7.5S147.642,0,143.5,0z"/>
    <path d="M207.5,0h-32c-4.142,0-7.5,3.357-7.5,7.5s3.358,7.5,7.5,7.5h32c4.142,0,7.5-3.357,7.5-7.5S211.642,0,207.5,0z"/>
    <path d="m239.5,15h32c4.142,0 7.5-3.357 7.5-7.5s-3.358-7.5-7.5-7.5h-32c-4.142,0-7.5,3.357-7.5,7.5s3.358,7.5 7.5,7.5z"/>
    <path d="m143.5,304h-32c-4.142,0-7.5,3.357-7.5,7.5s3.358,7.5 7.5,7.5h32c4.142,0 7.5-3.357 7.5-7.5s-3.358-7.5-7.5-7.5z"/>
    <path d="m207.5,304h-32c-4.142,0-7.5,3.357-7.5,7.5s3.358,7.5 7.5,7.5h32c4.142,0 7.5-3.357 7.5-7.5s-3.358-7.5-7.5-7.5z"/>
    <path d="m279,311.5c0-4.143-3.358-7.5-7.5-7.5h-32c-4.142,0-7.5,3.357-7.5,7.5s3.358,7.5 7.5,7.5h32c4.142,0 7.5-3.357 7.5-7.5z"/>
  </g>
</svg>
