<?xml version='1.0' encoding='iso-8859-1'?>
<svg version="1.1" xmlns="http://www.w3.org/2000/svg" viewBox="0 0 463 463" xmlns:xlink="http://www.w3.org/1999/xlink" enable-background="new 0 0 463 463">
  <g>
    <path d="m127.5,228h-56c-4.143,0-7.5,3.358-7.5,7.5s3.357,7.5 7.5,7.5h56c4.143,0 7.5-3.358 7.5-7.5s-3.357-7.5-7.5-7.5z"/>
    <path d="m135.5,84h-48c-12.958,0-23.5,10.542-23.5,23.5v32c0,12.958 10.542,23.5 23.5,23.5h48c12.958,0 23.5-10.542 23.5-23.5v-32c0-12.958-10.542-23.5-23.5-23.5zm-56.5,55.5v-32c0-4.687 3.813-8.5 8.5-8.5h16.5v49h-16.5c-4.687,0-8.5-3.813-8.5-8.5zm65,0c0,4.687-3.813,8.5-8.5,8.5h-16.5v-49h16.5c4.687,0 8.5,3.813 8.5,8.5v32z"/>
    <path d="m359.5,84h-32c-21.78,0-39.5,17.72-39.5,39.5s17.72,39.5 39.5,39.5h32c21.78,0 39.5-17.72 39.5-39.5s-17.72-39.5-39.5-39.5zm0,64h-32c-13.51,0-24.5-10.991-24.5-24.5s10.99-24.5 24.5-24.5h32c13.51,0 24.5,10.991 24.5,24.5s-10.99,24.5-24.5,24.5z"/>
    <path d="m423.5,20h-384c-21.78,0-39.5,17.72-39.5,39.5v224c0,21.78 17.72,39.5 39.5,39.5h169.325c13.181,44.811 43.144,92.001 103.53,119.333 0.972,0.44 2.026,0.667 3.093,0.667h0.104c1.066,0 2.121-0.228 3.093-0.667 60.386-27.331 90.349-74.522 103.53-119.333h1.325c21.78,0 39.5-17.72 39.5-39.5v-224c-5.68434e-14-21.78-17.72-39.5-39.5-39.5zm-108,407.26c-56.998-26.98-81.252-72.41-91.567-106.062-11.092-36.186-10.091-70.915-6.284-89.371 7.233,0.433 19.672,0.689 34.002-1.105 26.635-3.335 48.521-12.456 63.85-26.523 15.328,14.067 37.215,23.188 63.85,26.523 14.333,1.795 26.771,1.539 34.002,1.105 3.807,18.457 4.808,53.186-6.284,89.371-10.317,33.652-34.571,79.082-91.569,106.062zm132.5-143.76c0,12.655-9.645,23.099-21.97,24.37 7.854-36.182 5.404-69.047 0.23-86.214-1.054-3.497-4.48-5.728-8.106-5.278-0.654,0.08-65.5,7.636-96.997-27.782-1.494-1.679-3.597-2.495-5.656-2.516-2.121,0.01-4.162,0.836-5.656,2.516-31.497,35.417-96.346,27.861-96.99,27.782-3.625-0.459-7.058,1.775-8.113,5.277-0.58,1.923-1.124,4.045-1.625,6.345h-43.617c-4.143,0-7.5,3.358-7.5,7.5s3.357,7.5 7.5,7.5h41.314c-0.521,5.23-0.83,10.931-0.873,17h-128.441c-4.143,0-7.5,3.358-7.5,7.5s3.357,7.5 7.5,7.5h128.877c0.666,10.408 2.126,21.536 4.622,33h-165.499c-13.51,0-24.5-10.991-24.5-24.5v-224c0-13.509 10.99-24.5 24.5-24.5h384c13.51,0 24.5,10.991 24.5,24.5v224z"/>
    <path d="m370.196,278.197l-66.696,66.697-34.696-34.697c-2.93-2.929-7.678-2.929-10.607,0-2.929,2.929-2.929,7.678 0,10.606l40,40c1.465,1.464 3.385,2.197 5.304,2.197s3.839-0.732 5.304-2.197l72-72c2.929-2.929 2.929-7.678 0-10.606-2.931-2.929-7.679-2.929-10.609,0z"/>
  </g>
</svg>
