<?xml version='1.0' encoding='iso-8859-1'?>
<svg version="1.1" xmlns="http://www.w3.org/2000/svg" viewBox="0 0 463 463" xmlns:xlink="http://www.w3.org/1999/xlink" enable-background="new 0 0 463 463">
  <path d="m366.341,138.564c0.056-0.126 0.107-0.254 0.157-0.383 0.041-0.107 0.082-0.214 0.118-0.323 0.038-0.116 0.072-0.233 0.104-0.352 0.035-0.125 0.069-0.251 0.097-0.377 0.023-0.105 0.042-0.211 0.061-0.317 0.025-0.143 0.049-0.285 0.065-0.429 0.011-0.096 0.019-0.193 0.027-0.291 0.012-0.154 0.021-0.308 0.023-0.461 0.001-0.044 0.007-0.087 0.007-0.132 5.68434e-14-74.714-60.785-135.499-135.5-135.499s-135.5,60.785-135.5,135.5c0,0.044 0.006,0.088 0.007,0.132 0.003,0.154 0.011,0.308 0.023,0.461 0.008,0.098 0.015,0.195 0.027,0.291 0.017,0.144 0.04,0.286 0.065,0.429 0.019,0.106 0.038,0.212 0.061,0.317 0.028,0.126 0.062,0.252 0.097,0.377 0.033,0.118 0.066,0.236 0.104,0.351 0.036,0.109 0.077,0.216 0.119,0.324 0.049,0.128 0.1,0.256 0.156,0.381 0.042,0.094 0.089,0.188 0.135,0.281 0.066,0.132 0.134,0.262 0.208,0.39 0.023,0.041 0.042,0.083 0.066,0.124l89.185,148.642h-26.753c-8.547,0-15.5,6.953-15.5,15.5v144c0,8.547 6.953,15.5 15.5,15.5h144c8.547,0 15.5-6.953 15.5-15.5v-144c0-8.547-6.953-15.5-15.5-15.5h-26.753l89.185-148.641c0.024-0.041 0.043-0.083 0.066-0.124 0.074-0.128 0.142-0.258 0.208-0.39 0.046-0.094 0.093-0.187 0.135-0.281zm-134.841-123.564c59.851,0 109.641,43.863 118.935,101.129-6.383-2.619-14.243-4.129-22.935-4.129-13.46,0-24.94,3.609-32,9.374-7.06-5.765-18.54-9.374-32-9.374s-24.94,3.609-32,9.374c-7.06-5.765-18.54-9.374-32-9.374s-24.94,3.609-32,9.374c-7.06-5.765-18.54-9.374-32-9.374-8.692,0-16.552,1.51-22.935,4.129 9.294-57.266 59.084-101.129 118.935-101.129zm-72.5,298.607l17,17v89.786l-17,17v-123.786zm113,70.393h-81v-17h81v17zm-81,32v-17h81v17h-81zm81-81v17h-81v-17h81zm-85.393,96h89.786l17,17h-123.786l17-17zm100.393-10.607v-89.786l17-17v123.786l-17-17zm-10.607-100.393h-89.786l-17-17h123.786l-17,17zm-52.393-32h-2.919l-45.921-153.067c1.172-2.542 9.478-7.933 24.34-7.933 16.076,0 24.5,6.315 24.5,8.5v152.5zm15,0v-152.5c0-2.185 8.424-8.5 24.5-8.5 14.862,0 23.168,5.391 24.34,7.933l-45.921,153.067h-2.919zm-127.458-153.675c2.062-2.703 10.196-7.325 23.958-7.325 16.076,0 24.5,6.315 24.5,8.5 0,0.047 0.006,0.092 0.007,0.139 0.004,0.195 0.01,0.39 0.03,0.586 0.012,0.125 0.034,0.246 0.052,0.369 0.018,0.119 0.031,0.237 0.054,0.355 0.038,0.195 0.088,0.386 0.141,0.575 0.012,0.043 0.019,0.087 0.032,0.131l.01,.034c0.007,0.022 0.013,0.045 0.02,0.067l45.074,150.244h-1.673l-92.205-153.675zm146.038,153.675l45.073-150.243c0.007-0.022 0.013-0.045 0.02-0.067l.01-.034c0.013-0.043 0.02-0.087 0.032-0.131 0.053-0.19 0.103-0.38 0.141-0.575 0.023-0.119 0.037-0.237 0.054-0.355 0.018-0.123 0.04-0.244 0.052-0.369 0.019-0.196 0.026-0.391 0.03-0.586 0.001-0.047 0.007-0.092 0.007-0.139 0-2.185 8.424-8.5 24.5-8.5 13.762,0 21.896,4.622 23.958,7.325l-92.204,153.674h-1.673z"/>
</svg>
