<?xml version='1.0' encoding='iso-8859-1'?>
<svg version="1.1" xmlns="http://www.w3.org/2000/svg" viewBox="0 0 463 463" xmlns:xlink="http://www.w3.org/1999/xlink" enable-background="new 0 0 463 463">
  <path d="m366.341,138.564c0.056-0.125 0.107-0.253 0.156-0.381 0.042-0.108 0.083-0.216 0.119-0.324 0.038-0.115 0.071-0.232 0.104-0.35 0.035-0.126 0.069-0.252 0.097-0.379 0.023-0.104 0.042-0.21 0.061-0.316 0.026-0.143 0.049-0.286 0.066-0.43 0.011-0.096 0.019-0.193 0.027-0.29 0.012-0.154 0.021-0.308 0.023-0.462 0.001-0.044 0.007-0.087 0.007-0.132-0.001-74.715-60.786-135.5-135.501-135.5s-135.5,60.785-135.5,135.5c0,0.044 0.006,0.088 0.007,0.132 0.003,0.154 0.011,0.308 0.023,0.462 0.008,0.097 0.015,0.194 0.027,0.29 0.017,0.144 0.04,0.287 0.066,0.43 0.019,0.106 0.037,0.211 0.061,0.316 0.028,0.127 0.062,0.253 0.097,0.379 0.033,0.117 0.066,0.234 0.104,0.349 0.036,0.109 0.078,0.217 0.119,0.326 0.049,0.128 0.1,0.255 0.156,0.38 0.043,0.095 0.089,0.188 0.136,0.282 0.066,0.132 0.134,0.262 0.208,0.389 0.024,0.041 0.042,0.083 0.066,0.124l81.796,136.326c-1.422,0.91-2.758,1.976-3.98,3.198-4.439,4.438-6.884,10.34-6.884,16.617s2.444,12.179 6.883,16.617c3.37,3.37 14.365,9.739 25.76,15.883h-41.145c-8.547,0-15.5,6.953-15.5,15.5v24c0,4.142 3.357,7.5 7.5,7.5h0.5v72.5c0,8.547 6.953,15.5 15.5,15.5h128c8.547,0 15.5-6.953 15.5-15.5v-72.5h0.5c4.143,0 7.5-3.358 7.5-7.5v-24c0-8.547-6.953-15.5-15.5-15.5h-41.143c11.395-6.145 22.389-12.513 25.759-15.883 4.439-4.438 6.884-10.34 6.884-16.617s-2.444-12.179-6.883-16.617c-1.223-1.223-2.56-2.288-3.981-3.199l81.796-136.326c0.024-0.041 0.043-0.083 0.066-0.124 0.073-0.127 0.142-0.258 0.208-0.39 0.046-0.093 0.093-0.186 0.135-0.28zm-104.594,135.548l40.907-136.356c0.007-0.022 0.013-0.045 0.02-0.067l.01-.034c0.013-0.043 0.02-0.087 0.032-0.131 0.053-0.19 0.103-0.38 0.141-0.575 0.023-0.119 0.037-0.237 0.054-0.355 0.018-0.123 0.04-0.244 0.052-0.369 0.019-0.193 0.025-0.385 0.029-0.578 0.001-0.049 0.007-0.097 0.007-0.147 0-2.185 8.424-8.5 24.5-8.5 13.762,0 21.896,4.622 23.958,7.325l-82.704,137.84c-2.443,0.282-4.801,0.94-7.006,1.947zm-67.501-1.948l-82.704-137.84c2.062-2.703 10.196-7.325 23.958-7.325 16.076,0 24.5,6.315 24.5,8.5 0,0.05 0.006,0.098 0.007,0.147 0.004,0.192 0.01,0.385 0.029,0.578 0.012,0.125 0.034,0.246 0.052,0.369 0.018,0.119 0.031,0.237 0.054,0.355 0.038,0.195 0.088,0.386 0.141,0.575 0.012,0.043 0.019,0.087 0.032,0.131l.01,.035c0.007,0.022 0.013,0.044 0.02,0.066l40.906,136.356c-2.203-1.006-4.562-1.664-7.005-1.947zm44.754-136.664c0-2.185 8.424-8.5 24.5-8.5 14.862,0 23.168,5.391 24.34,7.933l-48.84,162.8v-162.233zm-15,162.234l-48.84-162.801c1.172-2.542 9.478-7.933 24.34-7.933 16.076,0 24.5,6.315 24.5,8.5v162.234zm7.5-282.734c59.851,0 109.641,43.863 118.935,101.129-6.383-2.619-14.243-4.129-22.935-4.129-13.46,0-24.94,3.609-32,9.374-7.06-5.765-18.54-9.374-32-9.374s-24.94,3.609-32,9.374c-7.06-5.765-18.54-9.374-32-9.374s-24.94,3.609-32,9.374c-7.06-5.765-18.54-9.374-32-9.374-8.692,0-16.552,1.51-22.935,4.129 9.294-57.266 59.084-101.129 118.935-101.129zm-48.5,280.5c0-2.27 0.884-4.404 2.49-6.01 1.605-1.605 3.739-2.49 6.01-2.49s4.404,0.884 6.01,2.49h0.001c2.271,2.286 9.193,14.499 16.694,28.714-14.217-7.5-26.429-14.422-28.716-16.695-1.605-1.605-2.489-3.739-2.489-6.009zm-24,48c0-0.276 0.225-0.5 0.5-0.5h64.5v17h-65v-16.5zm8,104v-72.5h57v73h-56.5c-0.275,0-0.5-0.224-0.5-0.5zm129,0c0,0.276-0.225,0.5-0.5,0.5h-56.5v-73h57v72.5zm8-104v16.5h-65v-17h64.5c0.275,0 0.5,0.224 0.5,0.5zm-26.49-41.99c-2.285,2.272-14.498,9.193-28.714,16.694 7.501-14.216 14.422-26.428 16.693-28.714h0.001c1.605-1.605 3.739-2.49 6.01-2.49s4.404,0.884 6.011,2.49c1.605,1.605 2.489,3.74 2.489,6.01s-0.884,4.404-2.49,6.01z"/>
</svg>
