<?xml version='1.0' encoding='iso-8859-1'?>
<svg version="1.1" xmlns="http://www.w3.org/2000/svg" viewBox="0 0 463 463" xmlns:xlink="http://www.w3.org/1999/xlink" enable-background="new 0 0 463 463">
  <path d="m273.107,260.357c27.575-41.179 61.893-92.426 61.893-148.857v-96c0-8.547-6.953-15.5-15.5-15.5h-64c-3.228,0-6.094,2.066-7.115,5.128l-16,48c-0.762,2.287-0.379,4.801 1.031,6.757 1.41,1.956 3.674,3.115 6.084,3.115h28.182l-36.882,78.374 8.113-52.733c0.333-2.163-0.295-4.363-1.72-6.024-1.425-1.661-3.505-2.617-5.693-2.617h-22.852l14.206-71.029c0.44-2.203-0.13-4.488-1.554-6.226-1.425-1.738-3.553-2.745-5.8-2.745h-72c-8.547,0-15.5,6.953-15.5,15.5v96c0,56.431 34.318,107.678 61.893,148.857 18.301,27.33 34.107,50.932 34.107,67.143v72c0,26.743-21.757,48.5-48.5,48.5h-8c-4.142,0-7.5,3.358-7.5,7.5s3.358,7.5 7.5,7.5h128c4.142,0 7.5-3.358 7.5-7.5s-3.358-7.5-7.5-7.5h-8c-26.743,0-48.5-21.757-48.5-48.5v-72c0-16.211 15.806-39.813 34.107-67.143zm-70.75-8.347c-26.445-39.49-59.357-88.638-59.357-140.51v-96c0-0.276 0.224-0.5 0.5-0.5h62.852l-14.206,71.029c-0.44,2.203 0.13,4.488 1.554,6.226 1.425,1.738 3.553,2.745 5.8,2.745h23.258l-14.67,95.359c-0.567,3.685 1.658,7.226 5.223,8.314 3.565,1.086 7.389-0.607 8.976-3.98l64-136c1.093-2.323 0.922-5.044-0.454-7.212-1.376-2.168-3.766-3.481-6.333-3.481h-29.594l11-33h58.594c0.276,0 0.5,0.224 0.5,0.5v96c0,51.872-32.912,101.02-59.357,140.51-11.646,17.391-22.35,33.375-29.143,47.835-6.793-14.459-17.498-30.444-29.143-47.835zm44.219,195.99h-30.151c6.123-5.175 11.259-11.48 15.076-18.599 3.815,7.119 8.951,13.424 15.075,18.599z"/>
</svg>
