<?xml version='1.0' encoding='iso-8859-1'?>
<svg version="1.1" xmlns="http://www.w3.org/2000/svg" viewBox="0 0 463 463" xmlns:xlink="http://www.w3.org/1999/xlink" enable-background="new 0 0 463 463">
  <path d="m398.897,325.619l-73.171-18.254c-0.273-0.412-0.573-0.808-0.931-1.167l-20.322-20.329c23.587-24.864 38.527-61.536 38.527-102.369 0-7.481-0.508-14.861-1.497-22.122 0.021-0.08 0.048-0.156 0.066-0.236 0.385-1.717 9.432-42.51 9.432-81.641 0-29.313-15.907-54.208-40.524-63.423-28.9-10.819-54.733-16.078-78.977-16.078-14.523,0-50.229,2.388-74.907,24h-2.794c-13.158,0-25.843,5.521-34.804,15.146-8.933,9.596-13.519,22.593-12.583,35.659 1.664,23.22 5.867,53.411 9.931,82.607 1.228,8.818 2.495,17.926 3.663,26.635 0.133,40.613 15.04,77.07 38.52,101.822l-20.322,20.329c-0.349,0.349-0.643,0.734-0.911,1.134l-73.194,18.288c-28.32,7.08-48.099,32.412-48.099,61.604v52.276c0,12.958 10.542,23.5 23.5,23.5h384c12.958,0 23.5-10.542 23.5-23.5v-52.277c0-29.191-19.779-54.523-48.103-61.604zm15.593,24.284l-38.234,38.234c-10.483,10.483-16.256,24.421-16.256,39.245v20.618h-9v-16.5c0-8.547-6.953-15.5-15.5-15.5h-16.5v-9h0.5c4.142,0 7.5-3.358 7.5-7.5s-3.358-7.5-7.5-7.5h-16c-4.142,0-7.5,3.358-7.5,7.5s3.358,7.5 7.5,7.5h0.5v9h-16.5c-8.547,0-15.5,6.953-15.5,15.5v16.5h-9.867l-6.851-47.103c4.738-4.302 7.718-10.508 7.718-17.397v-1.986l5.125,3.416c2.575,1.717 5.594,2.612 8.638,2.612 1.214,0 2.432-0.143 3.627-0.432 4.174-1.011 7.768-3.746 9.858-7.505 18.734-33.689 27.701-49.824 32.03-57.642l72.985,18.208c7.252,1.813 13.765,5.199 19.227,9.732zm-78.99,81.097c0.276,0 0.5,0.224 0.5,0.5v16.5h-49v-16.5c0-0.276 0.224-0.5 0.5-0.5h48zm-104-70.486l16.5,11v11.986c0,4.687-3.813,8.5-8.5,8.5h-16c-4.687,0-8.5-3.813-8.5-8.5v-11.986l16.5-11zm96.309-184.514h-18.043c-3.138-9.29-11.93-16-22.266-16h-24c-8.481,0-15.927,4.517-20.059,11.271-3.502-2.075-7.583-3.271-11.941-3.271s-8.439,1.196-11.941,3.271c-4.132-6.754-11.578-11.271-20.059-11.271h-24c-10.336,0-19.128,6.71-22.266,16h-17.42c2.161-9.985 8.347-18.515 14.829-27.441 6.612-9.106 13.411-18.467 15.617-29.589 73.061-0.182 129.009,4.325 152.076,12.227 5.531,14.212 8.702,29.24 9.473,44.803zm-31.809,7.5v8c0,4.687-3.813,8.5-8.5,8.5h-24c-4.687,0-8.5-3.813-8.5-8.5v-8c0-4.687 3.813-8.5 8.5-8.5h24c4.687,0 8.5,3.813 8.5,8.5zm-129,0c0-4.687 3.813-8.5 8.5-8.5h24c4.687,0 8.5,3.813 8.5,8.5v8c0,4.687-3.813,8.5-8.5,8.5h-24c-4.687,0-8.5-3.813-8.5-8.5v-8zm-15,7.5v0.5c0,12.958 10.542,23.5 23.5,23.5h24c12.958,0 23.5-10.542 23.5-23.5 0-4.687 3.813-8.5 8.5-8.5s8.5,3.813 8.5,8.5c0,12.958 10.542,23.5 23.5,23.5h24c12.958,0 23.5-10.542 23.5-23.5v-0.5h16.808c-3.112,62.963-45.115,113-96.308,113s-93.195-50.037-96.308-113h16.808zm79.5,128c8.758,0 17.281-1.237 25.462-3.569l-25.462,25.463-25.462-25.462c8.181,2.331 16.704,3.568 25.462,3.568zm-8,88h16c0.506,0 1.006-0.022 1.504-0.053l5.972,41.053h-30.951l5.971-41.053c0.498,0.031 0.998,0.053 1.504,0.053zm53.639-34.685c-0.031,0.056-0.096,0.172-0.28,0.217-0.212,0.052-0.364-0.049-0.414-0.082l-16.742-11.161c-0.008-0.005-0.016-0.011-0.024-0.016l-16.407-10.938 52.227-52.227 14.702,14.707c-4.962,8.951-16.612,29.919-33.062,59.5zm-147.165-322.948c6.223-6.685 14.684-10.367 23.825-10.367h5.701c1.926,0 3.778-0.741 5.172-2.069 20.784-19.794 53.659-21.931 66.828-21.931 22.105,0 46.907,5.089 73.717,15.125 18.7,7 30.783,26.381 30.783,49.375 0,16.099-1.661,32.768-3.561,46.574-0.469-1.213-0.953-2.42-1.453-3.622-0.768-1.846-2.24-3.309-4.092-4.065-32.437-13.236-118.823-14.684-167.442-14.387-4.123,0.026-7.452,3.376-7.452,7.5 0,9.663-6.253,18.274-13.494,28.246-2.627,3.618-5.359,7.383-7.893,11.38-3.842-27.622-7.69-55.775-9.239-77.393-0.649-9.058 2.405-17.712 8.6-24.366zm37.527,248.74l52.227,52.227-16.41,10.94c-0.006,0.004-0.013,0.008-0.019,0.013l-16.744,11.163c-0.049,0.033-0.201,0.135-0.414,0.082-0.184-0.044-0.249-0.161-0.279-0.216-16.45-29.582-28.101-50.55-33.062-59.501l14.701-14.708zm-99.765,42.065l72.973-18.232c4.324,7.809 13.29,23.942 32.044,57.666 2.09,3.758 5.684,6.494 9.858,7.504 1.196,0.29 2.413,0.432 3.627,0.432 3.044,0 6.063-0.896 8.638-2.612l5.125-3.417v1.986c0,6.889 2.98,13.095 7.718,17.397l-6.852,47.104h-97.867v-20.618c0-14.825-5.773-28.762-16.256-39.245l-38.234-38.234c5.461-4.532 11.974-7.918 19.226-9.731zm-36.736,99.328v-52.276c0-9.502 2.751-18.463 7.574-26.043l37.564,37.564c7.649,7.649 11.862,17.819 11.862,28.637v20.618h-48.5c-4.687,0-8.5-3.813-8.5-8.5zm401,0c0,4.687-3.813,8.5-8.5,8.5h-48.5v-20.618c0-10.818 4.213-20.989 11.862-28.638l37.564-37.564c4.823,7.58 7.574,16.541 7.574,26.043v52.277z"/>
</svg>
