<?xml version='1.0' encoding='iso-8859-1'?>
<svg version="1.1" xmlns="http://www.w3.org/2000/svg" viewBox="0 0 465.063 465.063" xmlns:xlink="http://www.w3.org/1999/xlink" enable-background="new 0 0 465.063 465.063">
  <g>
    <path d="m300.859,125.413l-39.633-5.759-17.725-35.913c-2.076-4.206-6.279-6.819-10.97-6.819s-8.894,2.613-10.97,6.819l-17.725,35.913-39.633,5.759c-4.642,0.675-8.426,3.865-9.875,8.326s-0.264,9.266 3.095,12.541l28.679,27.953-6.77,39.474c-0.793,4.623 1.071,9.208 4.867,11.965 2.145,1.558 4.652,2.349 7.179,2.349 1.943,0 3.898-0.469 5.704-1.418l35.448-18.636 35.447,18.635c4.152,2.184 9.089,1.827 12.884-0.93 3.796-2.757 5.66-7.342 4.867-11.965l-6.77-39.474 28.679-27.954c3.358-3.274 4.544-8.079 3.095-12.54s-5.231-7.651-9.873-8.326zm-35.192,40.831c-1.768,1.724-2.574,4.206-2.156,6.639l6.488,37.834-33.977-17.862c-2.186-1.148-4.795-1.148-6.98,0l-33.977,17.862 6.488-37.834c0.418-2.433-0.389-4.915-2.156-6.639l-27.488-26.793 37.987-5.52c2.443-0.354 4.555-1.889 5.647-4.103l16.988-34.422 16.988,34.422c1.093,2.214 3.204,3.748 5.647,4.103l37.987,5.52-27.486,26.793z"/>
    <path d="m232.532,32c-70.304,0-127.5,57.196-127.5,127.5s57.196,127.5 127.5,127.5 127.5-57.196 127.5-127.5-57.197-127.5-127.5-127.5zm0,240c-62.032,0-112.5-50.468-112.5-112.5s50.468-112.5 112.5-112.5 112.5,50.468 112.5,112.5-50.468,112.5-112.5,112.5z"/>
    <path d="m406.833,413.017l-59.285-143.127c27.534-28.677 44.484-67.59 44.484-110.39 0-87.948-71.552-159.5-159.5-159.5s-159.5,71.552-159.5,159.5c0,42.8 16.949,81.713 44.484,110.39l-59.286,143.127c-2.327,5.616-1.226,11.895 2.874,16.384 4.099,4.489 10.249,6.157 16.058,4.346l37.378-11.647 18.196,34.667c2.712,5.167 7.912,8.297 13.696,8.297 0.242,0 0.485-0.005 0.729-0.017 6.073-0.275 11.292-3.936 13.618-9.553l56.83-137.198c4.914,0.458 9.89,0.704 14.922,0.704s10.008-0.245 14.922-0.704l56.83,137.198c2.326,5.617 7.545,9.277 13.618,9.553 0.244,0.012 0.487,0.017 0.729,0.017 5.783,0 10.985-3.131 13.696-8.297l18.196-34.667 37.379,11.646c5.809,1.812 11.958,0.142 16.057-4.346 4.101-4.489 5.203-10.767 2.875-16.383zm-259.911,36.737c-0.058,0.138-0.122,0.294-0.44,0.309-0.314,0.021-0.396-0.135-0.465-0.267l-21.101-40.201c-1.683-3.207-5.413-4.754-8.872-3.675l-43.344,13.506c-0.143,0.043-0.306,0.094-0.52-0.141s-0.149-0.391-0.093-0.528l57.106-137.865c8.547,7.287 17.866,13.692 27.822,19.066l-33.422,80.689c-1.586,3.827 0.231,8.214 4.059,9.799 0.938,0.39 1.91,0.573 2.867,0.573 2.943,0 5.735-1.744 6.932-4.632l33.104-79.921c10.089,4.271 20.709,7.52 31.725,9.644l-55.358,133.644zm-58.89-290.254c0-79.678 64.822-144.5 144.5-144.5s144.5,64.822 144.5,144.5-64.823,144.5-144.5,144.5-144.5-64.822-144.5-144.5zm304.851,259.785c-0.216,0.234-0.376,0.184-0.519,0.141l-43.346-13.506c-3.46-1.08-7.189,0.468-8.872,3.675l-21.101,40.201c-0.069,0.132-0.167,0.279-0.465,0.267-0.318-0.015-0.383-0.171-0.44-0.309l-55.357-133.644c11.016-2.124 21.636-5.373 31.725-9.644l33.104,79.921c1.196,2.889 3.988,4.632 6.932,4.632 0.956,0 1.929-0.185 2.867-0.573 3.827-1.585 5.645-5.972 4.059-9.799l-33.422-80.689c9.956-5.374 19.275-11.78 27.822-19.066l57.106,137.865c0.057,0.138 0.121,0.294-0.093,0.528z"/>
  </g>
</svg>
