<?xml version='1.0' encoding='iso-8859-1'?>
<svg version="1.1" xmlns="http://www.w3.org/2000/svg" viewBox="0 0 463 463" xmlns:xlink="http://www.w3.org/1999/xlink" enable-background="new 0 0 463 463">
  <path d="m463,211.203c0-23.639-17.36-43.295-40-46.902v-127.108c0-12.661-7.071-23.978-18.453-29.534-11.357-5.542-24.597-4.161-34.552,3.607-84.534,65.959-188.426,136.437-226.495,136.437h-104c-21.78,0-39.5,17.72-39.5,39.5v48c0,19.689 14.481,36.056 33.351,39.019l34.712,159.672c3.125,14.376 16.07,24.81 30.781,24.81h30.879c9.577,0 18.516-4.276 24.525-11.733 6.01-7.456 8.29-17.101 6.255-26.458l-31.698-145.809h14.695c38.026,0 141.933,70.503 226.495,136.482 5.908,4.609 12.971,6.971 20.111,6.971 4.893,0 9.823-1.109 14.441-3.363 11.382-5.557 18.453-16.874 18.453-29.535v-127.153c22.64-3.608 40-23.263 40-46.903zm-448,24v-48c0-13.51 10.991-24.5 24.5-24.5h96.5v97h-96.5c-13.509,0-24.5-10.99-24.5-24.5zm130.846,188.494c1.065,4.902-0.129,9.954-3.277,13.86-3.148,3.905-7.831,6.146-12.847,6.146h-30.879c-7.706,0-14.486-5.466-16.124-12.995l-33.914-156.005h64.65l32.391,148.994zm262.154-38.438c0,6.986-3.75,12.987-10.032,16.054-6.256,3.057-13.264,2.325-18.745-1.953-51.36-40.074-172.739-130.854-228.223-139.06v-98.192c55.527-8.203 176.88-98.954 228.223-139.015 5.48-4.275 12.488-5.006 18.745-1.953 6.282,3.066 10.032,9.067 10.032,16.053v348.066zm15-142.439v-63.234c14.315,3.396 25,16.278 25,31.617s-10.685,28.221-25,31.617z"/>
</svg>
