<?xml version='1.0' encoding='iso-8859-1'?>
<svg version="1.1" xmlns="http://www.w3.org/2000/svg" viewBox="0 0 463 463" xmlns:xlink="http://www.w3.org/1999/xlink" enable-background="new 0 0 463 463">
  <g>
    <path d="m303.5,0c-83.538,0-151.5,67.962-151.5,151.5 0,22.354 4.965,44.427 14.405,64.5h-101.833l-6.171-16.662c-3.398-9.174-12.254-15.338-22.037-15.338h-20.864c-4.142,0-7.5,3.358-7.5,7.5s3.358,7.5 7.5,7.5h20.864c3.539,0 6.742,2.229 7.971,5.548l64.529,174.228c2.489,6.72 6.22,12.754 10.87,17.885l-7.909,7.908c-4.764-2.898-10.353-4.569-16.325-4.569-17.369,0-31.5,14.131-31.5,31.5s14.131,31.5 31.5,31.5 31.5-14.131 31.5-31.5c0-5.972-1.671-11.561-4.569-16.325l8.824-8.824c8.704,5.515 18.942,8.649 29.654,8.649h123.773c-2.965,4.802-4.681,10.454-4.681,16.5 0,17.369 14.131,31.5 31.5,31.5s31.5-14.131 31.5-31.5-14.132-31.5-31.501-31.5h-150.591c-16.86,0-32.123-10.623-37.979-26.434l-2.432-6.566h191.002c21.78,0 39.5-17.72 39.5-39.5v-32.104c28.75-9.512 54.506-27.834 72.987-52.041 20.289-26.574 31.013-58.337 31.013-91.855 0-83.538-67.962-151.5-151.5-151.5zm24.5,431.5c0,9.098-7.402,16.5-16.5,16.5s-16.5-7.402-16.5-16.5 7.402-16.5 16.5-16.5 16.5,7.402 16.5,16.5zm95.834-215.483c-0.112-0.005-0.221-0.017-0.334-0.017h-47.933c4.287-17.683 6.82-37.023 7.329-57h56.879c-1.078,20.157-6.489,39.479-15.941,57.017zm-72.834,14.983h4.641c-1.433,4.139-2.984,8.118-4.641,11.929v-11.929zm-7.5-15h-32.5v-57h56.895c-0.535,20.184-3.216,39.583-7.736,57h-16.659zm-96.645,0c-4.571-17.585-7.214-37.068-7.747-57h56.892v57h-49.145zm-79.646-72c1.117-20.53 6.792-39.865 16.028-57.013 0.088,0.003 0.174,0.013 0.263,0.013h47.805c-4.185,17.363-6.713,36.591-7.211,57h-56.885zm79.723-57h49.068v57h-56.896c0.552-20.396 3.334-39.765 7.828-57zm64.068-15v-56.026c18.066,4.661 34.11,25.874 44.538,56.026h-44.538zm49.068,15c4.494,17.235 7.276,36.604 7.828,57h-56.896v-57h49.068zm-64.068-71.026v56.026h-44.538c10.428-30.152 26.472-51.365 44.538-56.026zm86.906,128.026c-0.498-20.409-3.026-39.637-7.211-57h47.805c0.089,0 0.175-0.01 0.264-0.013 9.236,17.148 14.91,36.483 16.028,57.013h-56.886zm31.487-72h-42.866c-6.604-20.785-15.767-38.143-26.719-50.605 28.291,9.002 52.609,26.993 69.585,50.605zm-152.2-50.605c-10.952,12.462-20.116,29.82-26.719,50.605h-42.866c16.975-23.612 41.293-41.603 69.585-50.605zm-94.972,137.605h56.884c0.503,19.789 2.981,39.214 7.283,57h-47.888-0.314c-9.414-17.535-14.868-37.044-15.965-57zm-71.721,289c-9.098,0-16.5-7.402-16.5-16.5s7.402-16.5 16.5-16.5 16.5,7.402 16.5,16.5-7.402,16.5-16.5,16.5zm240.5-120.5c0,13.509-10.991,24.5-24.5,24.5h-196.558l-44.814-121h265.872v96.5zm15-48.012v-5.817c8.26-11.629 15.141-26.184 20.381-42.67h43.065c-0.783,1.09-1.563,2.181-2.381,3.252-15.643,20.489-37.065,36.288-61.065,45.235z"/>
    <path d="m231.5,335c4.142,0 7.5-3.358 7.5-7.5v-72c0-4.142-3.358-7.5-7.5-7.5s-7.5,3.358-7.5,7.5v72c0,4.142 3.358,7.5 7.5,7.5z"/>
    <path d="m263.5,335c4.142,0 7.5-3.358 7.5-7.5v-72c0-4.142-3.358-7.5-7.5-7.5s-7.5,3.358-7.5,7.5v72c0,4.142 3.358,7.5 7.5,7.5z"/>
    <path d="m295.5,335c4.142,0 7.5-3.358 7.5-7.5v-72c0-4.142-3.358-7.5-7.5-7.5s-7.5,3.358-7.5,7.5v72c0,4.142 3.358,7.5 7.5,7.5z"/>
    <path d="m135.5,248c-4.142,0-7.5,3.358-7.5,7.5v72c0,4.142 3.358,7.5 7.5,7.5s7.5-3.358 7.5-7.5v-72c0-4.142-3.358-7.5-7.5-7.5z"/>
    <path d="m167.5,248c-4.142,0-7.5,3.358-7.5,7.5v72c0,4.142 3.358,7.5 7.5,7.5s7.5-3.358 7.5-7.5v-72c0-4.142-3.358-7.5-7.5-7.5z"/>
    <path d="m199.5,335c4.142,0 7.5-3.358 7.5-7.5v-72c0-4.142-3.358-7.5-7.5-7.5s-7.5,3.358-7.5,7.5v72c0,4.142 3.358,7.5 7.5,7.5z"/>
  </g>
</svg>
