<?xml version='1.0' encoding='iso-8859-1'?>
<svg version="1.1" xmlns="http://www.w3.org/2000/svg" viewBox="0 0 463 463" xmlns:xlink="http://www.w3.org/1999/xlink" enable-background="new 0 0 463 463">
  <g>
    <path d="m423.5,40h-384c-21.78,0-39.5,17.72-39.5,39.5v304c0,21.78 17.72,39.5 39.5,39.5h384c21.78,0 39.5-17.72 39.5-39.5v-304c0-21.78-17.72-39.5-39.5-39.5zm24.5,39.5v136.5h-270.394l27.197-27.197c2.929-2.929 2.929-7.678 0-10.606-2.929-2.929-7.678-2.929-10.606,0l-27.197,27.197v-150.394h256.5c13.509,0 24.5,10.991 24.5,24.5zm-408.5-24.5h112.5v138.306c-9.276-17.088-20.292-36.426-25.13-41.264-10.704-10.705-28.123-10.705-38.828,0-10.705,10.705-10.705,28.124 0,38.828 4.838,4.838 24.176,15.854 41.264,25.13h-114.306v-136.5c0-13.509 10.991-24.5 24.5-24.5zm102.045,150.545c-19.667-10.585-39.41-21.795-42.897-25.282-4.856-4.856-4.856-12.759 0-17.615 2.429-2.428 5.618-3.642 8.808-3.642 3.189,0 6.38,1.214 8.808,3.642 3.486,3.487 14.695,23.23 25.281,42.897zm-126.545,177.955v-152.5h126.394l-27.197,27.197c-2.929,2.929-2.929,7.678 0,10.606 1.464,1.464 3.384,2.197 5.303,2.197s3.839-0.732 5.303-2.197l27.197-27.197v166.394h-112.5c-13.509,0-24.5-10.991-24.5-24.5zm408.5,24.5h-256.5v-154.306c9.276,17.088 20.292,36.426 25.13,41.264 5.352,5.353 12.383,8.029 19.414,8.029 7.031,0 14.062-2.676 19.415-8.029 10.705-10.705 10.705-28.124 0-38.828-4.838-4.838-24.176-15.854-41.264-25.13h258.305v152.5c0,13.509-10.991,24.5-24.5,24.5zm-246.045-166.545c19.667,10.585 39.41,21.795 42.897,25.282 4.856,4.856 4.856,12.759 0,17.615-4.857,4.856-12.759,4.855-17.615,0-3.487-3.487-14.696-23.23-25.282-42.897z"/>
    <path d="m367.5,175c21.78,0 39.5-17.72 39.5-39.5s-17.72-39.5-39.5-39.5-39.5,17.72-39.5,39.5 17.72,39.5 39.5,39.5zm0-64c13.509,0 24.5,10.991 24.5,24.5s-10.991,24.5-24.5,24.5-24.5-10.991-24.5-24.5 10.991-24.5 24.5-24.5z"/>
    <path d="m399.5,264h-112c-8.547,0-15.5,6.953-15.5,15.5v80c0,8.547 6.953,15.5 15.5,15.5h112c8.547,0 15.5-6.953 15.5-15.5v-80c0-8.547-6.953-15.5-15.5-15.5zm.5,95.5c0,0.276-0.224,0.5-0.5,0.5h-112c-0.276,0-0.5-0.224-0.5-0.5v-80c0-0.276 0.224-0.5 0.5-0.5h112c0.276,0 0.5,0.224 0.5,0.5v80z"/>
    <path d="m375.5,296h-64c-4.142,0-7.5,3.358-7.5,7.5s3.358,7.5 7.5,7.5h64c4.142,0 7.5-3.358 7.5-7.5s-3.358-7.5-7.5-7.5z"/>
    <path d="m375.5,328h-64c-4.142,0-7.5,3.358-7.5,7.5s3.358,7.5 7.5,7.5h64c4.142,0 7.5-3.358 7.5-7.5s-3.358-7.5-7.5-7.5z"/>
  </g>
</svg>
