<?xml version='1.0' encoding='iso-8859-1'?>
<svg version="1.1" xmlns="http://www.w3.org/2000/svg" viewBox="0 0 463 463" xmlns:xlink="http://www.w3.org/1999/xlink" enable-background="new 0 0 463 463">
  <g>
    <path d="M383.5,64.015h-1.599c-10.413-16.45-29.579-31.742-54.549-43.409C298.5,7.125,265.354,0,231.5,0   c-33.86,0-67.01,7.127-95.864,20.611C110.67,32.277,91.509,47.567,81.097,64.015H79.5c-8.547,0-15.5,6.953-15.5,15.5v16   c0,8.547,6.953,15.5,15.5,15.5H80V447.5c0,8.547,6.953,15.5,15.5,15.5h16c8.547,0,15.5-6.953,15.5-15.5V439h209v8.5   c0,8.547,6.953,15.5,15.5,15.5h16c8.547,0,15.5-6.953,15.5-15.5V111.015h0.5c8.547,0,15.5-6.953,15.5-15.5v-16   C399,70.968,392.047,64.015,383.5,64.015z M231.5,15c58.566,0,109.196,23.386,131.671,49.015H99.636   C125.861,33.109,184.312,15,231.5,15z M368,447.5c0,0.276-0.224,0.5-0.5,0.5h-16c-0.276,0-0.5-0.224-0.5-0.5v-16   c0-4.142-3.358-7.5-7.5-7.5h-224c-4.142,0-7.5,3.358-7.5,7.5v16c0,0.276-0.224,0.5-0.5,0.5h-16c-0.276,0-0.5-0.224-0.5-0.5V111.015   h273V447.5z M384,95.515c0,0.276-0.224,0.5-0.5,0.5h-304c-0.276,0-0.5-0.224-0.5-0.5v-16c0-0.276,0.224-0.5,0.5-0.5h5.864   c0.003,0,0.005,0,0.008,0c0.002,0,0.005,0,0.007,0H383.5c0.276,0,0.5,0.224,0.5,0.5V95.515z"/>
    <path d="m135.5,351h192c12.958,0 23.5-10.542 23.5-23.5v-176c0-12.958-10.542-23.5-23.5-23.5h-192c-12.958,0-23.5,10.542-23.5,23.5v176c0,12.958 10.542,23.5 23.5,23.5zm-8.5-199.5c0-4.687 3.813-8.5 8.5-8.5h192c4.687,0 8.5,3.813 8.5,8.5v176c0,4.687-3.813,8.5-8.5,8.5h-192c-4.687,0-8.5-3.813-8.5-8.5v-176z"/>
    <path d="m167.5,207h128c12.958,0 23.5-10.542 23.5-23.5s-10.542-23.5-23.5-23.5h-128c-12.958,0-23.5,10.542-23.5,23.5s10.542,23.5 23.5,23.5zm0-32h128c4.687,0 8.5,3.813 8.5,8.5s-3.813,8.5-8.5,8.5h-128c-4.687,0-8.5-3.813-8.5-8.5s3.813-8.5 8.5-8.5z"/>
    <path d="m151.5,311c4.142,0 7.5-3.358 7.5-7.5v-16.5h8.5c8.547,0 15.5-6.953 15.5-15.5v-24c0-8.547-6.953-15.5-15.5-15.5h-16c-4.142,0-7.5,3.358-7.5,7.5v64c0,4.142 3.358,7.5 7.5,7.5zm16.5-63.5v24c0,0.276-0.224,0.5-0.5,0.5h-8.5v-25h8.5c0.276,0 0.5,0.224 0.5,0.5z"/>
    <path d="m211.5,232c-10.752,0-19.5,8.748-19.5,19.5v40c0,10.752 8.748,19.5 19.5,19.5s19.5-8.748 19.5-19.5v-40c0-10.752-8.748-19.5-19.5-19.5zm4.5,59.5c0,2.481-2.019,4.5-4.5,4.5s-4.5-2.019-4.5-4.5v-40c0-2.481 2.019-4.5 4.5-4.5s4.5,2.019 4.5,4.5v40z"/>
    <path d="m255.5,247h8c4.142,0 7.5-3.358 7.5-7.5s-3.358-7.5-7.5-7.5h-8c-8.547,0-15.5,6.953-15.5,15.5v8c0,8.547 6.953,15.5 15.5,15.5 0.276,0 0.5,0.224 0.5,0.5v24c0,0.276-0.224,0.5-0.5,0.5h-8c-4.142,0-7.5,3.358-7.5,7.5s3.358,7.5 7.5,7.5h8c8.547,0 15.5-6.953 15.5-15.5v-24c0-8.547-6.953-15.5-15.5-15.5-0.276,0-0.5-0.224-0.5-0.5v-8c0-0.276 0.224-0.5 0.5-0.5z"/>
    <path d="m287.5,232c-4.142,0-7.5,3.358-7.5,7.5s3.358,7.5 7.5,7.5h8.5v56.5c0,4.142 3.358,7.5 7.5,7.5s7.5-3.358 7.5-7.5v-56.5h8.5c4.142,0 7.5-3.358 7.5-7.5s-3.358-7.5-7.5-7.5h-32z"/>
  </g>
</svg>
