<?xml version='1.0' encoding='iso-8859-1'?>
<svg version="1.1" xmlns="http://www.w3.org/2000/svg" viewBox="0 0 463 463" xmlns:xlink="http://www.w3.org/1999/xlink" enable-background="new 0 0 463 463">
  <g>
    <path d="m430.493,61.335c-1.055-3.502-4.494-5.729-8.113-5.277-0.31,0.039-31.436,3.829-69.982-1-35.15-4.402-83.67-17.091-115.197-52.542-1.483-1.666-3.541-2.516-5.608-2.516-0.061,0-0.125,0-0.186,0-2.067,0-4.125,0.85-5.607,2.516-31.45,35.364-79.813,48.068-114.845,52.498-38.593,4.88-70.025,1.083-70.335,1.044-3.625-0.458-7.058,1.775-8.113,5.277-11.674,38.728-13.844,114.317 8.976,188.763 13.537,44.163 34.367,83.708 61.911,117.538 32.648,40.096 74.677,71.957 124.918,94.697 0.972,0.44 2.026,0.667 3.093,0.667h0.191c1.066,0 2.121-0.228 3.093-0.667 50.241-22.74 92.27-54.601 124.918-94.697 27.544-33.829 48.374-73.375 61.911-117.538 22.819-74.445 20.649-150.035 8.975-188.763zm-23.316,184.367c-12.968,42.304-32.886,80.142-59.202,112.462-30.52,37.483-69.691,67.457-116.475,89.13-46.783-21.674-85.955-51.647-116.475-89.13-26.316-32.321-46.234-70.159-59.202-112.462-21.992-71.748-18.688-140.734-10.554-174.125 11.507,0.928 37.002,2.147 67.197-1.635 50.575-6.333 91.523-24.127 119.034-51.621 27.511,27.494 68.459,45.287 119.034,51.621 30.24,3.788 55.761,2.56 67.243,1.631 14.272,55.564 1.768,133.779-10.6,174.129z"/>
    <path d="m287.904,187.5c0,4.142 3.357,7.5 7.5,7.5s7.5-3.358 7.5-7.5c0-14.297-7.812-27.541-21.996-37.293-7.51-5.163-16.371-9.018-26.004-11.4v-11.307c0-4.142-3.357-7.5-7.5-7.5s-7.5,3.358-7.5,7.5v8.87c-2.803-0.236-5.637-0.37-8.5-0.37s-5.697,0.134-8.5,0.37v-8.87c0-4.142-3.357-7.5-7.5-7.5s-7.5,3.358-7.5,7.5v11.307c-9.633,2.382-18.494,6.237-26.004,11.4-14.185,9.752-21.996,22.996-21.996,37.293s7.812,27.541 21.996,37.293c7.51,5.163 16.371,9.018 26.004,11.4v72.365c-19.279-5.884-33-18.653-33-33.058 0-4.142-3.357-7.5-7.5-7.5s-7.5,3.358-7.5,7.5c0,14.297 7.812,27.541 21.996,37.293 7.51,5.163 16.371,9.018 26.004,11.4v11.307c0,4.142 3.357,7.5 7.5,7.5s7.5-3.358 7.5-7.5v-8.87c2.803,0.236 5.637,0.37 8.5,0.37s5.697-0.134 8.5-0.37v8.87c0,4.142 3.357,7.5 7.5,7.5s7.5-3.358 7.5-7.5v-11.307c9.633-2.382 18.494-6.237 26.004-11.4 14.185-9.752 21.996-22.996 21.996-37.293s-7.812-27.541-21.996-37.293c-7.51-5.163-16.371-9.018-26.004-11.4v-72.365c19.279,5.884 33,18.653 33,33.058zm-113,0c0-14.405 13.721-27.174 33-33.058v66.116c-19.278-5.884-33-18.653-33-33.058zm56.5,124.5c-2.881,0-5.72-0.148-8.5-0.433v-72.937c2.803,0.236 5.637,0.37 8.5,0.37 2.881,0 5.72,0.148 8.5,0.433v72.134c-2.779,0.285-5.618,0.433-8.5,0.433zm56.5-36.5c0,14.405-13.721,27.174-33,33.058v-66.116c19.279,5.884 33,18.653 33,33.058zm-48-51.13c-2.803-0.236-5.637-0.37-8.5-0.37-2.881,0-5.72-0.148-8.5-0.433v-72.134c2.78-0.285 5.619-0.433 8.5-0.433s5.72,0.148 8.5,0.433v72.937z"/>
    <path d="m397.374,89.484c-1.536,0.02-3.122,0.03-4.753,0.03-36.533,0-105.455-5.809-156.579-44.71-2.684-2.041-6.4-2.041-9.084,0-51.124,38.902-120.045,44.71-156.578,44.71-1.632,0-3.217-0.01-4.754-0.03-0.032,0-0.064,0-0.097,0-3.774,0-6.968,2.809-7.44,6.563-2.657,21.108-6.614,77.458 13.987,144.673 25.859,84.36 78.363,146.963 156.052,186.071 1.061,0.534 2.216,0.801 3.372,0.801 1.155,0 2.312-0.267 3.372-0.801 77.688-39.106 130.192-101.71 156.052-186.071 20.602-67.214 16.645-123.565 13.987-144.673-0.476-3.787-3.692-6.621-7.537-6.563zm-20.792,146.84c-24.238,79.073-73.036,138.047-145.082,175.347-72.046-37.301-120.844-96.274-145.082-175.347-18.082-58.992-16.192-110.205-14.164-131.814 18.671-0.097 46.404-1.688 75.785-8.429 32.337-7.419 60.382-19.517 83.461-35.992 23.079,16.475 51.124,28.573 83.461,35.992 29.381,6.741 57.114,8.332 75.785,8.429 2.028,21.609 3.918,72.822-14.164,131.814z"/>
  </g>
</svg>
