<?xml version='1.0' encoding='iso-8859-1'?>
<svg version="1.1" xmlns="http://www.w3.org/2000/svg" viewBox="0 0 463 463" xmlns:xlink="http://www.w3.org/1999/xlink" enable-background="new 0 0 463 463">
  <g>
    <path d="m394.772,75.678c-43.666-37.428-101.65-58.041-163.272-58.041s-119.606,20.613-163.272,58.041c-43.998,37.712-68.228,87.95-68.228,141.459 0,28.338 6.758,55.719 20.086,81.382 12.01,23.125 28.771,43.786 49.863,61.481-9.162,22.863-22.082,48.781-29.275,62.77-2.793,5.431-2.201,11.796 1.544,16.611 2.992,3.845 7.438,5.981 12.137,5.981 1.176,0 2.367-0.134 3.556-0.408 22.876-5.274 66.354-17.079 104.111-37.51 22.517,6.101 45.875,9.192 69.479,9.192 61.622,0 119.606-20.613 163.272-58.041 43.997-37.711 68.227-87.949 68.227-141.458s-24.23-103.747-68.228-141.459zm-163.272,325.959c-23.263,0-46.265-3.179-68.366-9.45-1.908-0.541-3.957-0.304-5.693,0.662-36.755,20.451-80.246,32.267-102.899,37.49-0.155,0.036-0.3,0.068-0.483-0.167-0.194-0.25-0.114-0.404-0.044-0.541 9.609-18.688 22.946-45.878 31.915-69.293 1.168-3.05 0.228-6.507-2.325-8.544-21.473-17.137-38.364-37.387-50.205-60.188-12.21-23.506-18.4-48.561-18.4-74.469 0-101.733 97.121-184.5 216.5-184.5s216.5,82.767 216.5,184.5-97.121,184.5-216.5,184.5z"/>
    <path d="m231.5,322.637c-7.995,0-14.5,6.505-14.5,14.5s6.505,14.5 14.5,14.5 14.5-6.505 14.5-14.5-6.505-14.5-14.5-14.5z"/>
    <path d="m231.5,97.637c-57.07,0-103.5,39.252-103.5,87.5 0,13.58 3.571,26.593 10.614,38.678 2.086,3.579 6.678,4.788 10.256,2.704 3.579-2.085 4.789-6.678 2.703-10.256-5.688-9.763-8.573-20.235-8.573-31.126 0-39.977 39.701-72.5 88.5-72.5s88.5,32.523 88.5,72.5c0,17.209-7.52,33.905-21.175,47.011-13.834,13.279-32.963,22.035-53.862,24.653-11.951,1.499-20.963,11.527-20.963,23.328v17.008c0,4.142 3.357,7.5 7.5,7.5s7.5-3.358 7.5-7.5v-17.008c0-4.324 3.292-7.875 7.828-8.443 24.081-3.018 46.236-13.216 62.385-28.715 16.629-15.962 25.787-36.501 25.787-57.834 0-48.247-46.43-87.5-103.5-87.5z"/>
  </g>
</svg>
