<?xml version='1.0' encoding='iso-8859-1'?>
<svg version="1.1" xmlns="http://www.w3.org/2000/svg" viewBox="0 0 463 463" xmlns:xlink="http://www.w3.org/1999/xlink" enable-background="new 0 0 463 463">
  <g>
    <path d="m403,327.5v-104c0-4.142-3.358-7.5-7.5-7.5h-70.551l44.245-51.619c1.906-2.224 2.343-5.354 1.12-8.015-1.224-2.661-3.885-4.366-6.814-4.366h-40.5v-136.5c0-8.547-6.953-15.5-15.5-15.5h-80c-8.547,0-15.5,6.953-15.5,15.5v136.5h-40.5c-2.929,0-5.59,1.705-6.814,4.366-1.224,2.661-0.787,5.791 1.12,8.015l44.245,51.619h-93.479l-6.171-16.662c-3.398-9.174-12.254-15.338-22.037-15.338h-20.864c-4.142,0-7.5,3.358-7.5,7.5s3.358,7.5 7.5,7.5h20.864c3.539,0 6.742,2.229 7.971,5.548l64.529,174.228c2.489,6.72 6.22,12.754 10.87,17.885l-7.909,7.908c-4.764-2.898-10.353-4.569-16.325-4.569-17.369,0-31.5,14.131-31.5,31.5s14.131,31.5 31.5,31.5 31.5-14.131 31.5-31.5c0-5.972-1.671-11.561-4.569-16.325l8.824-8.824c8.704,5.515 18.942,8.649 29.654,8.649h123.773c-2.965,4.802-4.681,10.454-4.681,16.5 0,17.369 14.131,31.5 31.5,31.5s31.5-14.131 31.5-31.5-14.132-31.5-31.501-31.5h-150.591c-16.86,0-32.123-10.623-37.979-26.434l-2.432-6.566h191.002c21.78,0 39.5-17.72 39.5-39.5zm-23,104c0,9.098-7.402,16.5-16.5,16.5s-16.5-7.402-16.5-16.5 7.402-16.5 16.5-16.5 16.5,7.402 16.5,16.5zm-160.5-264.5c4.142,0 7.5-3.358 7.5-7.5v-144c0-0.276 0.224-0.5 0.5-0.5h80c0.276,0 0.5,0.224 0.5,0.5v144c0,4.142 3.358,7.5 7.5,7.5h31.693l-79.693,92.976-79.693-92.976h31.693zm-72,281c-9.098,0-16.5-7.402-16.5-16.5s7.402-16.5 16.5-16.5 16.5,7.402 16.5,16.5-7.402,16.5-16.5,16.5zm-25.372-217h100.78l38.898,45.381c1.425,1.663 3.505,2.619 5.694,2.619s4.27-0.957 5.694-2.619l38.898-45.381h75.908v96.5c0,13.509-10.991,24.5-24.5,24.5h-196.558l-44.814-121z"/>
    <path d="m283.5,288c-4.142,0-7.5,3.358-7.5,7.5v32c0,4.142 3.358,7.5 7.5,7.5s7.5-3.358 7.5-7.5v-32c0-4.142-3.358-7.5-7.5-7.5z"/>
    <path d="m315.5,248c-4.142,0-7.5,3.358-7.5,7.5v72c0,4.142 3.358,7.5 7.5,7.5s7.5-3.358 7.5-7.5v-72c0-4.142-3.358-7.5-7.5-7.5z"/>
    <path d="m347.5,248c-4.142,0-7.5,3.358-7.5,7.5v72c0,4.142 3.358,7.5 7.5,7.5s7.5-3.358 7.5-7.5v-72c0-4.142-3.358-7.5-7.5-7.5z"/>
    <path d="m187.5,248c-4.142,0-7.5,3.358-7.5,7.5v72c0,4.142 3.358,7.5 7.5,7.5s7.5-3.358 7.5-7.5v-72c0-4.142-3.358-7.5-7.5-7.5z"/>
    <path d="m219.5,248c-4.142,0-7.5,3.358-7.5,7.5v72c0,4.142 3.358,7.5 7.5,7.5s7.5-3.358 7.5-7.5v-72c0-4.142-3.358-7.5-7.5-7.5z"/>
    <path d="m251.5,288c-4.142,0-7.5,3.358-7.5,7.5v32c0,4.142 3.358,7.5 7.5,7.5s7.5-3.358 7.5-7.5v-32c0-4.142-3.358-7.5-7.5-7.5z"/>
  </g>
</svg>
