<?xml version='1.0' encoding='iso-8859-1'?>
<svg version="1.1" xmlns="http://www.w3.org/2000/svg" viewBox="0 0 463 463" xmlns:xlink="http://www.w3.org/1999/xlink" enable-background="new 0 0 463 463">
  <g>
    <path d="m327.5,0h-192c-21.78,0-39.5,17.72-39.5,39.5v384c0,21.78 17.72,39.5 39.5,39.5h192c21.78,0 39.5-17.72 39.5-39.5v-384c0-21.78-17.72-39.5-39.5-39.5zm-216.5,79h241v305h-241v-305zm24.5-64h192c13.509,0 24.5,10.991 24.5,24.5v24.5h-241v-24.5c0-13.509 10.991-24.5 24.5-24.5zm192,433h-192c-13.509,0-24.5-10.991-24.5-24.5v-24.5h241v24.5c0,13.509-10.991,24.5-24.5,24.5z"/>
    <path d="m207.5,47h48c4.142,0 7.5-3.358 7.5-7.5s-3.358-7.5-7.5-7.5h-48c-4.142,0-7.5,3.358-7.5,7.5s3.358,7.5 7.5,7.5z"/>
    <path d="m231.5,409c-7.995,0-14.5,6.505-14.5,14.5s6.505,14.5 14.5,14.5 14.5-6.505 14.5-14.5-6.505-14.5-14.5-14.5z"/>
    <path d="m295.5,264c-7.023,0-13.332,3.101-17.641,8h-68.718c-1.638-1.863-3.565-3.464-5.711-4.735l-3.459-12.265h87.529c12.958,0 23.5-10.542 23.5-23.5v-40.5h0.5c4.142,0 7.5-3.358 7.5-7.5s-3.358-7.5-7.5-7.5h-133.862c-3.197-9.473-12.172-16-22.25-16h-11.888c-4.142,0-7.5,3.358-7.5,7.5s3.358,7.5 7.5,7.5h11.888c3.789,0 7.152,2.546 8.181,6.193l23.476,83.236c-10.834,2.088-19.045,11.636-19.045,23.071 0,12.958 10.542,23.5 23.5,23.5s23.5-10.542 23.5-23.5c0-0.168-0.009-0.333-0.013-0.5h57.026c-0.004,0.167-0.013,0.332-0.013,0.5 0,12.958 10.542,23.5 23.5,23.5s23.5-10.542 23.5-23.5-10.542-23.5-23.5-23.5zm.5-32.5c0,4.687-3.813,8.5-8.5,8.5h-91.76l-13.82-49h114.08v40.5zm-104.5,64.5c-4.687,0-8.5-3.813-8.5-8.5s3.813-8.5 8.5-8.5 8.5,3.813 8.5,8.5-3.813,8.5-8.5,8.5zm104,0c-4.687,0-8.5-3.813-8.5-8.5s3.813-8.5 8.5-8.5 8.5,3.813 8.5,8.5-3.813,8.5-8.5,8.5z"/>
  </g>
</svg>
