<?xml version='1.0' encoding='iso-8859-1'?>
<svg version="1.1" xmlns="http://www.w3.org/2000/svg" viewBox="0 0 463 463" xmlns:xlink="http://www.w3.org/1999/xlink" enable-background="new 0 0 463 463">
  <g>
    <path d="m327.5,0h-192c-21.78,0-39.5,17.72-39.5,39.5v384c0,21.78 17.72,39.5 39.5,39.5h192c21.78,0 39.5-17.72 39.5-39.5v-384c0-21.78-17.72-39.5-39.5-39.5zm-216.5,79h241v305h-241v-305zm24.5-64h192c13.509,0 24.5,10.991 24.5,24.5v24.5h-241v-24.5c0-13.509 10.991-24.5 24.5-24.5zm192,433h-192c-13.509,0-24.5-10.991-24.5-24.5v-24.5h241v24.5c0,13.509-10.991,24.5-24.5,24.5z"/>
    <path d="m207.5,47h48c4.142,0 7.5-3.358 7.5-7.5s-3.358-7.5-7.5-7.5h-48c-4.142,0-7.5,3.358-7.5,7.5s3.358,7.5 7.5,7.5z"/>
    <path d="m231.5,409c-7.995,0-14.5,6.505-14.5,14.5s6.505,14.5 14.5,14.5 14.5-6.505 14.5-14.5-6.505-14.5-14.5-14.5z"/>
    <path d="m175.5,120h-16c-12.958,0-23.5,10.542-23.5,23.5v16c0,12.958 10.542,23.5 23.5,23.5h16c12.958,0 23.5-10.542 23.5-23.5v-16c0-12.958-10.542-23.5-23.5-23.5zm8.5,39.5c0,4.687-3.813,8.5-8.5,8.5h-16c-4.687,0-8.5-3.813-8.5-8.5v-16c0-4.687 3.813-8.5 8.5-8.5h16c4.687,0 8.5,3.813 8.5,8.5v16z"/>
    <path d="m223.5,143h64c4.142,0 7.5-3.358 7.5-7.5s-3.358-7.5-7.5-7.5h-64c-4.142,0-7.5,3.358-7.5,7.5s3.358,7.5 7.5,7.5z"/>
    <path d="m223.5,175h96c4.142,0 7.5-3.358 7.5-7.5s-3.358-7.5-7.5-7.5h-96c-4.142,0-7.5,3.358-7.5,7.5s3.358,7.5 7.5,7.5z"/>
    <path d="m175.5,200h-16c-12.958,0-23.5,10.542-23.5,23.5v16c0,12.958 10.542,23.5 23.5,23.5h16c12.958,0 23.5-10.542 23.5-23.5v-16c0-12.958-10.542-23.5-23.5-23.5zm8.5,39.5c0,4.687-3.813,8.5-8.5,8.5h-16c-4.687,0-8.5-3.813-8.5-8.5v-16c0-4.687 3.813-8.5 8.5-8.5h16c4.687,0 8.5,3.813 8.5,8.5v16z"/>
    <path d="m223.5,223h64c4.142,0 7.5-3.358 7.5-7.5s-3.358-7.5-7.5-7.5h-64c-4.142,0-7.5,3.358-7.5,7.5s3.358,7.5 7.5,7.5z"/>
    <path d="m319.5,240h-96c-4.142,0-7.5,3.358-7.5,7.5s3.358,7.5 7.5,7.5h96c4.142,0 7.5-3.358 7.5-7.5s-3.358-7.5-7.5-7.5z"/>
    <path d="m175.5,280h-16c-12.958,0-23.5,10.542-23.5,23.5v16c0,12.958 10.542,23.5 23.5,23.5h16c12.958,0 23.5-10.542 23.5-23.5v-16c0-12.958-10.542-23.5-23.5-23.5zm8.5,39.5c0,4.687-3.813,8.5-8.5,8.5h-16c-4.687,0-8.5-3.813-8.5-8.5v-16c0-4.687 3.813-8.5 8.5-8.5h16c4.687,0 8.5,3.813 8.5,8.5v16z"/>
    <path d="m223.5,303h64c4.142,0 7.5-3.358 7.5-7.5s-3.358-7.5-7.5-7.5h-64c-4.142,0-7.5,3.358-7.5,7.5s3.358,7.5 7.5,7.5z"/>
    <path d="m319.5,320h-96c-4.142,0-7.5,3.358-7.5,7.5s3.358,7.5 7.5,7.5h96c4.142,0 7.5-3.358 7.5-7.5s-3.358-7.5-7.5-7.5z"/>
  </g>
</svg>
