<?xml version='1.0' encoding='iso-8859-1'?>
<svg version="1.1" xmlns="http://www.w3.org/2000/svg" viewBox="0 0 463 463" xmlns:xlink="http://www.w3.org/1999/xlink" enable-background="new 0 0 463 463">
  <path d="m455.5,336h-8.5v-97h0.5c4.143,0 7.5-3.357 7.5-7.5s-3.357-7.5-7.5-7.5h-112.5v-33h0.5c4.143,0 7.5-3.357 7.5-7.5s-3.357-7.5-7.5-7.5h-40.5v-18.234c9.29-3.138 16-11.93 16-22.266 0-12.958-10.542-23.5-23.5-23.5h-112c-12.958,0-23.5,10.542-23.5,23.5 0,10.336 6.71,19.128 16,22.266v18.234h-40.5c-4.143,0-7.5,3.357-7.5,7.5s3.357,7.5 7.5,7.5h0.5v33h-112.5c-4.143,0-7.5,3.357-7.5,7.5s3.357,7.5 7.5,7.5h0.5v97h-8.5c-4.143,0-7.5,3.357-7.5,7.5s3.357,7.5 7.5,7.5h448c4.143,0 7.5-3.357 7.5-7.5s-3.357-7.5-7.5-7.5zm-216.5-65h49v65h-49v-65zm-15,65h-49v-65h49v65zm71.5-80h-128c-4.143,0-7.5,3.357-7.5,7.5v72.5h-17v-113h177v113h-17v-72.5c0-4.143-3.357-7.5-7.5-7.5zm-167.5,15v65h-41v-65h41zm207,0h41v65h-41v-65zm56,0h41v65h-41v-65zm41-32v17h-97v-17h97zm-256.5-112h112c4.687,0 8.5,3.813 8.5,8.5s-3.813,8.5-8.5,8.5h-112c-4.687,0-8.5-3.813-8.5-8.5s3.813-8.5 8.5-8.5zm7.5,32h97v17h-97v-17zm137,32v17h-177v-17h177zm-192,48v17h-97v-17h97zm-97,32h41v65h-41v-65z"/>
</svg>
