<?xml version='1.0' encoding='iso-8859-1'?>
<svg version="1.1" xmlns="http://www.w3.org/2000/svg" viewBox="0 0 463.009 463.009" xmlns:xlink="http://www.w3.org/1999/xlink" enable-background="new 0 0 463.009 463.009">
  <g>
    <path d="m267.688,183c12.958,0 23.5-10.542 23.5-23.5s-10.542-23.5-23.5-23.5c-7.023,0-13.332,3.101-17.641,8h-68.717c-1.638-1.862-3.564-3.464-5.71-4.734l-3.46-12.266h87.528c12.958,0 23.5-10.542 23.5-23.5v-40.5h0.5c4.143,0 7.5-3.358 7.5-7.5s-3.357-7.5-7.5-7.5h-133.861c-3.198-9.473-12.173-16-22.25-16h-11.889c-4.143,0-7.5,3.358-7.5,7.5s3.357,7.5 7.5,7.5h11.889c3.788,0 7.152,2.547 8.181,6.193l23.476,83.236c-10.834,2.088-19.046,11.636-19.046,23.071 0,12.958 10.542,23.5 23.5,23.5s23.5-10.542 23.5-23.5c0-0.168-0.009-0.333-0.013-0.5h57.025c-0.004,0.167-0.013,0.332-0.013,0.5 0.001,12.958 10.543,23.5 23.501,23.5zm.5-79.5c0,4.687-3.813,8.5-8.5,8.5h-91.758l-13.821-49h114.079v40.5zm-104.5,64.5c-4.687,0-8.5-3.813-8.5-8.5s3.813-8.5 8.5-8.5 8.5,3.813 8.5,8.5-3.813,8.5-8.5,8.5zm104-17c4.687,0 8.5,3.813 8.5,8.5s-3.813,8.5-8.5,8.5-8.5-3.813-8.5-8.5 3.814-8.5 8.5-8.5z"/>
    <path d="m384.881,344.72l-117.433-129.72h32.24c17.369,0 31.5-14.131 31.5-31.5v-152c0-17.369-14.131-31.5-31.5-31.5h-192c-17.369,0-31.5,14.131-31.5,31.5v152c0,17.369 14.131,31.5 31.5,31.5h106.558l9.763,196.355c0.132,2.651 1.655,5.035 4.005,6.268 2.352,1.233 5.176,1.133 7.435-0.264 1.393-0.862 29.706-18.406 47.251-30.414l25.491,61.543c2.402,5.799 6.919,10.316 12.718,12.718 2.899,1.201 5.946,1.802 8.993,1.802s6.094-0.601 8.993-1.802c5.799-2.402 10.316-6.919 12.719-12.718 2.401-5.799 2.401-12.187-0.001-17.986l-25.625-61.866 54.877-11.545c2.629-0.553 4.761-2.469 5.59-5.024s0.228-5.356-1.574-7.347zm-159.632-176.335c-2.128-2.35-5.503-3.108-8.431-1.896-2.929,1.213-4.778,4.136-4.621,7.302l1.303,26.209h-105.812c-9.099,0-16.5-7.402-16.5-16.5v-152c0-9.098 7.401-16.5 16.5-16.5h192c9.099,0 16.5,7.402 16.5,16.5v152c0,9.098-7.401,16.5-16.5,16.5h-45.819l-28.62-31.615zm88.807,187.434c-2.184,0.459-4.049,1.867-5.09,3.84s-1.149,4.308-0.295,6.369l29.084,70.215c0.868,2.097 0.868,4.407 0,6.505-0.869,2.098-2.503,3.731-4.601,4.6-2.097,0.869-4.407,0.87-6.506,0-2.098-0.869-3.731-2.502-4.601-4.6l-29.083-70.215c-0.884-2.134-2.701-3.741-4.927-4.358-0.659-0.183-1.332-0.272-2.002-0.272-1.59,0-3.159,0.506-4.465,1.474-9.696,7.184-30.44,20.426-43.215,28.47l-10.133-203.827 136.772,151.083-50.938,10.716z"/>
  </g>
</svg>
