<?xml version='1.0' encoding='iso-8859-1'?>
<svg version="1.1" xmlns="http://www.w3.org/2000/svg" viewBox="0 0 463 463" xmlns:xlink="http://www.w3.org/1999/xlink" enable-background="new 0 0 463 463">
  <path d="m369.183,256.044c-8.401-0.437-16.401,2.371-22.631,7.931-5.213-9.105-14.53-15.363-25.369-15.931-8.4-0.435-16.401,2.371-22.631,7.931-5.213-9.105-14.53-15.363-25.369-15.931-6.511-0.339-12.789,1.272-18.183,4.606v-29.65h32.5c17.369,0 31.5-14.131 31.5-31.5v-152c0-17.369-14.131-31.5-31.5-31.5h-192c-17.369,0-31.5,14.131-31.5,31.5v152c0,17.369 14.131,31.5 31.5,31.5h96.5v68.087c-3.836-3.925-7.648-7.596-11.411-10.989-12.913-11.628-32.869-10.593-44.484,2.305-5.634,6.249-8.497,14.317-8.062,22.72 0.435,8.402 4.115,16.133 10.364,21.767 28.065,25.305 50.82,61.784 62.007,81.521 16.384,38.035 53.66,62.589 95.086,62.589 57.07,0 103.5-46.43 103.5-103.5v-70.642c0-17.525-13.097-31.939-29.817-32.814zm-114.204-88.068c-0.142-5.648-1.638-10.951-4.178-15.552 1.378-0.914 3.009-1.424 4.698-1.424 4.687,0 8.5,3.813 8.5,8.5s-3.813,8.5-8.5,8.5c-0.174,0-0.347-0.014-0.52-0.024zm-159.479,32.024c-9.098,0-16.5-7.402-16.5-16.5v-152c0-9.098 7.402-16.5 16.5-16.5h192c9.098,0 16.5,7.402 16.5,16.5v152c0,9.098-7.402,16.5-16.5,16.5h-32.5v-17.024c0.167,0.003 0.332,0.024 0.5,0.024 12.958,0 23.5-10.542 23.5-23.5s-10.542-23.5-23.5-23.5c-5.443,0-10.667,1.913-14.814,5.277-4.492-3.049-9.785-4.933-15.503-5.233-8.41-0.438-16.412,2.385-22.645,7.956h-33.396c-1.638-1.863-3.565-3.464-5.711-4.735l-3.46-12.265h87.529c12.958,0 23.5-10.542 23.5-23.5v-40.5h0.5c4.142,0 7.5-3.358 7.5-7.5s-3.358-7.5-7.5-7.5h-133.862c-3.197-9.473-12.172-16-22.25-16h-11.888c-4.142,0-7.5,3.358-7.5,7.5s3.358,7.5 7.5,7.5h11.888c3.789,0 7.152,2.546 8.181,6.193l23.476,83.236c-10.834,2.088-19.045,11.636-19.045,23.071 0,12.958 10.542,23.5 23.5,23.5s23.5-10.542 23.5-23.5c0-0.168-0.009-0.333-0.013-0.5h18.201c-0.774,2.749-1.188,5.608-1.188,8.5v32.5h-96.5zm46.42-137h114.08v40.5c0,4.687-3.813,8.5-8.5,8.5h-91.76l-13.82-49zm9.58,88c4.687,0 8.5,3.813 8.5,8.5s-3.813,8.5-8.5,8.5-8.5-3.813-8.5-8.5 3.813-8.5 8.5-8.5zm232.5,208.5c0,48.799-39.701,88.5-88.5,88.5-35.547,0-67.52-21.142-81.454-53.861-0.11-0.258-0.234-0.51-0.372-0.753-11.562-20.444-35.41-58.755-65.222-85.636-6.757-6.092-7.297-16.545-1.203-23.305 2.949-3.275 6.995-5.203 11.392-5.43 0.29-0.015 0.579-0.022 0.867-0.022 4.085,0 7.979,1.493 11.04,4.25 7.584,6.838 15.416,14.919 23.276,24.019 2.048,2.371 5.354,3.218 8.292,2.126 2.937-1.093 4.884-3.896 4.884-7.029v-134.859c0-4.571 1.827-8.823 5.145-11.971 3.314-3.146 7.673-4.741 12.254-4.505 8.603,0.451 15.602,8.451 15.602,17.834v38.613c0,0.01-0.001,0.019-0.001,0.029s0.001,0.019 0.001,0.029v63.971c0,4.142 3.358,7.5 7.5,7.5s7.5-3.358 7.5-7.5c0-4.571 1.827-8.823 5.145-11.971 3.315-3.146 7.668-4.746 12.254-4.505 8.603,0.451 15.602,8.451 15.602,17.834v14.642c0,4.142 3.358,7.5 7.5,7.5s7.5-3.358 7.5-7.5v-8c0-4.571 1.827-8.823 5.145-11.971 3.314-3.146 7.67-4.741 12.254-4.505 8.603,0.451 15.602,8.451 15.602,17.834v14.642c0,4.142 3.358,7.5 7.5,7.5s7.5-3.358 7.5-7.5v-8c0-4.571 1.827-8.823 5.145-11.971 3.314-3.146 7.667-4.744 12.254-4.505 8.603,0.451 15.602,8.451 15.602,17.834v70.642z"/>
</svg>
