<?xml version='1.0' encoding='iso-8859-1'?>
<svg version="1.1" xmlns="http://www.w3.org/2000/svg" viewBox="0 0 463 463" xmlns:xlink="http://www.w3.org/1999/xlink" enable-background="new 0 0 463 463">
  <g>
    <path d="m106.072,260.335c16.898-7.568 37.928-16.987 37.928-44.335 0-22.056-17.944-40-40-40s-40,17.944-40,40c0,4.143 3.358,7.5 7.5,7.5s7.5-3.357 7.5-7.5c0-13.785 11.215-25 25-25s25,11.215 25,25c0,16.778-11.042,22.576-29.06,30.646-16.012,7.171-35.94,16.097-35.94,40.854 0,4.143 3.358,7.5 7.5,7.5h65c4.142,0 7.5-3.357 7.5-7.5s-3.358-7.5-7.5-7.5h-56.324c3.139-8.997 12.42-13.63 25.896-19.665z"/>
    <path d="M439.233,368.786l-30.829,12.052C443.751,339.139,463,286.883,463,231.5c0-61.836-24.08-119.971-67.805-163.695   S293.336,0,231.5,0S111.529,24.08,67.805,67.805S0,169.664,0,231.5s24.08,119.971,67.805,163.695S169.664,463,231.5,463   c47.622,0,93.367-14.35,132.288-41.497c3.397-2.369,4.23-7.045,1.861-10.442c-2.369-3.396-7.044-4.23-10.442-1.86   C318.815,434.583,276.038,448,231.5,448c-57.829,0-112.197-22.52-153.089-63.411C37.52,343.697,15,289.329,15,231.5   S37.52,119.303,78.411,78.411C119.303,37.52,173.671,15,231.5,15s112.197,22.52,153.089,63.411   C425.48,119.303,448,173.671,448,231.5c0,53.638-19.306,104.142-54.647,143.791l6.21-38.519c0.659-4.089-2.121-7.938-6.21-8.598   c-4.09-0.66-7.939,2.121-8.598,6.211l-8.037,49.854c-0.896,5.56,1.185,10.991,5.567,14.528c2.827,2.281,6.221,3.461,9.683,3.461   c1.906-0.001,3.833-0.358,5.696-1.086l47.032-18.387c3.857-1.509,5.762-5.858,4.254-9.716   C447.441,369.184,443.092,367.277,439.233,368.786z"/>
    <path d="m296.385,157.128l-48,144c-1.31,3.93 0.814,8.178 4.744,9.487 0.787,0.262 1.586,0.387 2.373,0.387 3.14,0 6.066-1.987 7.114-5.13l48-144c1.31-3.93-0.814-8.178-4.744-9.487-3.928-1.307-8.177,0.813-9.487,4.743z"/>
    <path d="m331.944,294.104c1.131,0.609 2.349,0.898 3.549,0.897 2.67,0 5.255-1.43 6.61-3.945l56-104c1.251-2.324 1.189-5.136-0.165-7.401-1.354-2.267-3.799-3.654-6.439-3.654h-64c-4.142,0-7.5,3.357-7.5,7.5s3.358,7.5 7.5,7.5h51.443l-50.047,92.944c-1.962,3.646-0.598,8.195 3.049,10.159z"/>
    <path d="m215.5,295c4.142,0 7.5-3.357 7.5-7.5v-16.5h8.5c4.142,0 7.5-3.357 7.5-7.5s-3.358-7.5-7.5-7.5h-8.5v-72.5c0-4.143-3.358-7.5-7.5-7.5s-7.5,3.357-7.5,7.5v72.5h-38.42l21.103-70.345c1.19-3.968-1.061-8.148-5.028-9.339-3.966-1.19-8.148,1.061-9.339,5.028l-23.97,79.899c-0.007,0.022-0.013,0.044-0.02,0.066l-.01,.035c-0.013,0.044-0.02,0.088-0.032,0.132-0.053,0.189-0.103,0.379-0.141,0.574-0.024,0.119-0.037,0.238-0.054,0.356-0.018,0.123-0.04,0.244-0.052,0.368-0.019,0.195-0.026,0.388-0.029,0.582-0.001,0.048-0.007,0.094-0.007,0.143 0,0.006 0.001,0.011 0.001,0.017 0,0.225 0.013,0.449 0.034,0.672 0.003,0.028 0.002,0.057 0.005,0.086 0.021,0.199 0.054,0.395 0.09,0.59 0.01,0.052 0.014,0.105 0.025,0.156 0.02,0.097 0.05,0.192 0.074,0.288 0.203,0.817 0.535,1.581 0.981,2.268 0.021,0.033 0.039,0.068 0.061,0.1 0.073,0.109 0.155,0.211 0.234,0.316 0.068,0.091 0.131,0.184 0.203,0.271 0.038,0.046 0.08,0.087 0.119,0.132 0.509,0.591 1.114,1.103 1.8,1.517 0.103,0.062 0.202,0.128 0.308,0.186 0.037,0.02 0.077,0.036 0.115,0.055 0.185,0.096 0.373,0.188 0.566,0.269 0.021,0.009 0.044,0.015 0.065,0.024 0.212,0.086 0.427,0.164 0.648,0.231 0.005,0.001 0.01,0.004 0.015,0.005 0.014,0.004 0.028,0.005 0.042,0.009 0.294,0.086 0.596,0.151 0.904,0.201 0.084,0.014 0.167,0.028 0.251,0.038 0.289,0.037 0.581,0.061 0.879,0.064 0.027,0 0.054,0.006 0.081,0.006 0.008,0 0.016-0.002 0.024-0.002h48.474v16.5c0,4.145 3.358,7.502 7.5,7.502z"/>
  </g>
</svg>
