<?xml version='1.0' encoding='iso-8859-1'?>
<svg version="1.1" xmlns="http://www.w3.org/2000/svg" viewBox="0 0 463 463" xmlns:xlink="http://www.w3.org/1999/xlink" enable-background="new 0 0 463 463">
  <path d="m372.203,75.062c-35.854-31.373-82.911-49.303-133.203-50.928v-16.634c0-4.142-3.358-7.5-7.5-7.5s-7.5,3.358-7.5,7.5v16.634c-50.292,1.625-97.349,19.555-133.203,50.928-37.916,33.176-58.797,77.369-58.797,124.438 0,4.142 3.358,7.5 7.5,7.5s7.5-3.358 7.5-7.5c0-8.944 11.22-16.5 24.5-16.5s24.5,7.556 24.5,16.5c0,4.142 3.358,7.5 7.5,7.5s7.5-3.358 7.5-7.5c0-8.944 11.22-16.5 24.5-16.5s24.5,7.556 24.5,16.5c0,4.142 3.358,7.5 7.5,7.5s7.5-3.358 7.5-7.5c0-8.944 11.22-16.5 24.5-16.5s24.5,7.556 24.5,16.5v228c0,19.575 15.925,35.5 35.5,35.5s35.5-15.925 35.5-35.5v-12c0-4.142-3.358-7.5-7.5-7.5s-7.5,3.358-7.5,7.5v12c0,11.304-9.196,20.5-20.5,20.5s-20.5-9.196-20.5-20.5v-228c0-8.944 11.22-16.5 24.5-16.5s24.5,7.556 24.5,16.5c0,4.142 3.358,7.5 7.5,7.5s7.5-3.358 7.5-7.5c0-8.944 11.22-16.5 24.5-16.5s24.5,7.556 24.5,16.5c0,4.142 3.358,7.5 7.5,7.5s7.5-3.358 7.5-7.5c0-8.944 11.22-16.5 24.5-16.5s24.5,7.556 24.5,16.5c0,4.142 3.358,7.5 7.5,7.5s7.5-3.358 7.5-7.5c0-47.069-20.881-91.262-58.797-124.438zm-300.703,92.938c-8.156,0-15.742,1.982-22.042,5.373 10.232-54.134 51.702-99.227 107.725-120.761-7.916,6.742-15.345,14.605-22.159,23.548-20.809,27.313-33.878,61.995-37.782,99.478-6.919-4.754-15.914-7.638-25.742-7.638zm64,0c-8.559,0-16.484,2.189-22.96,5.892 7.319-60.54 40.144-109.863 83.279-127.709-6.126,8.396-11.712,19.066-16.583,31.853-10.185,26.736-16.609,60.602-18.583,97.195-6.837-4.514-15.604-7.231-25.153-7.231zm64,0c-8.922,0-17.159,2.374-23.78,6.367 1.985-34.401 8.037-66.063 17.534-90.991 8.767-23.014 19.663-38.014 30.746-42.756v134.198c-6.739-4.262-15.25-6.818-24.5-6.818zm64,0c-9.25,0-17.761,2.556-24.5,6.819v-134.199c11.083,4.741 21.979,19.741 30.746,42.756 9.497,24.929 15.549,56.59 17.534,90.991-6.621-3.993-14.858-6.367-23.78-6.367zm64,0c-9.549,0-18.316,2.717-25.153,7.231-1.974-36.593-8.398-70.459-18.583-97.195-4.872-12.787-10.457-23.457-16.583-31.853 43.135,17.846 75.96,67.169 83.279,127.709-6.476-3.703-14.401-5.892-22.96-5.892zm64,0c-9.828,0-18.823,2.884-25.742,7.638-3.904-37.483-16.973-72.165-37.782-99.478-6.814-8.943-14.243-16.806-22.159-23.548 56.023,21.534 97.494,66.626 107.725,120.761-6.3-3.391-13.886-5.373-22.042-5.373z"/>
</svg>
